<svg width="329" height="220" viewBox="0 0 329 220" fill="none" xmlns="http://www.w3.org/2000/svg">
<g filter="url(#filter0_d_2895_35128)">
<path d="M8.19922 8C8.19922 5.79086 9.99008 4 12.1992 4H316.599C318.808 4 320.599 5.79086 320.599 8V204C320.599 206.209 318.808 208 316.599 208H12.1992C9.99008 208 8.19922 206.209 8.19922 204V8Z" fill="white" shape-rendering="crispEdges"/>
<path d="M26.668 20.2227C26.3926 19.3203 25.6953 18.7695 24.6641 18.7695C23.2988 18.7695 22.3027 19.8359 22.3086 21.7461C22.3027 23.6738 23.2812 24.7461 24.6992 24.7461C25.9824 24.7461 26.7969 23.9727 26.8203 22.7656H24.8516V21.5586H28.2969V22.5781C28.2969 24.7637 26.7969 26.1172 24.6992 26.1172C22.3555 26.1172 20.7676 24.4473 20.7734 21.7578C20.7676 19.0332 22.4316 17.3984 24.6523 17.3984C26.5215 17.3984 27.9688 18.5586 28.2266 20.2227H26.668ZM29.6797 26V17.5156H32.8672C34.8125 17.5156 35.8496 18.6992 35.8555 20.3281C35.8496 21.9512 34.8008 23.1289 32.8438 23.1289H31.2031V26H29.6797ZM31.2031 21.875H32.6328C33.7812 21.8691 34.2969 21.2246 34.2969 20.3281C34.2969 19.4199 33.7812 18.793 32.6328 18.793H31.2031V21.875ZM42.4414 17.5156H43.9766V23.0586C43.9707 24.8809 42.5996 26.1289 40.5312 26.1289C38.4512 26.1289 37.0918 24.8809 37.0859 23.0586V17.5156H38.6094V22.9297C38.6152 24.002 39.3594 24.7637 40.5312 24.7695C41.7031 24.7637 42.4414 24.002 42.4414 22.9297V17.5156ZM56.2578 16.4492V20.5859H57.8281V21.6758H56.2578V27.0195H54.957V16.4492H56.2578ZM47.9023 24.125C50.4805 22.8359 51.875 21.043 52.1328 18.6289H48.4766V17.5508H53.457C53.4512 20.6621 52.1621 23.3984 48.6406 25.1328L47.9023 24.125ZM67.9883 21.5469V22.5898H58.332V21.5469H60.582V20.2051C59.7793 19.8652 59.3281 19.332 59.3281 18.6406C59.3281 17.3691 60.8105 16.625 63.1484 16.625C65.4805 16.625 66.9629 17.3691 66.9688 18.6406C66.9629 19.3379 66.5059 19.8711 65.7031 20.2051V21.5469H67.9883ZM59.457 25.1211C59.457 23.9023 60.834 23.2227 63.1484 23.2344C65.4277 23.2227 66.8105 23.9023 66.8164 25.1211C66.8105 26.3516 65.4277 27.0195 63.1484 27.0195C60.834 27.0195 59.457 26.3516 59.457 25.1211ZM60.6875 18.6406C60.6758 19.2852 61.584 19.6309 63.1484 19.625C64.707 19.6309 65.6211 19.2852 65.6211 18.6406C65.6211 17.9902 64.707 17.627 63.1484 17.6328C61.584 17.627 60.6758 17.9902 60.6875 18.6406ZM60.7812 25.1211C60.7754 25.7188 61.6074 26.041 63.1484 26.0352C64.666 26.041 65.5039 25.7188 65.5156 25.1211C65.5039 24.5293 64.666 24.2246 63.1484 24.2188C61.6074 24.2246 60.7754 24.5293 60.7812 25.1211ZM61.8945 21.5469H64.4023V20.5391C64.0215 20.5918 63.5996 20.6211 63.1484 20.6211C62.6973 20.6211 62.2754 20.5918 61.8945 20.5391V21.5469ZM78.3711 21.1836V22.1562H75.9102V22.8828H77.1992V25.2969H71.1289V26.0469H77.5156V26.9492H69.8281V24.4531H75.9102V23.7969H69.8164V22.8828H71.1641V22.1562H68.6914V21.1836H78.3711ZM69.8867 17.5742V16.6836H77.1758V19.0625H71.2109V19.707H77.3633V20.6094H69.9219V18.2188H75.875V17.5742H69.8867ZM72.4531 22.8828H74.6211V22.1562H72.4531V22.8828Z" fill="black"/>
<rect x="20.1992" y="35.9372" width="288.4" height="160.063" rx="4" fill="#F9FBFD"/>
<path d="M99.4453 116.494L97.1992 115.957L98.0098 108.75H105.998V111.025H100.324L99.9727 114.18C100.161 114.069 100.448 113.952 100.832 113.828C101.216 113.698 101.646 113.633 102.121 113.633C102.811 113.633 103.423 113.74 103.957 113.955C104.491 114.17 104.943 114.482 105.314 114.892C105.692 115.303 105.979 115.804 106.174 116.396C106.369 116.989 106.467 117.659 106.467 118.408C106.467 119.04 106.369 119.642 106.174 120.215C105.979 120.781 105.682 121.289 105.285 121.738C104.888 122.181 104.39 122.529 103.791 122.783C103.192 123.037 102.482 123.164 101.662 123.164C101.05 123.164 100.458 123.073 99.8848 122.89C99.3184 122.708 98.8073 122.438 98.3516 122.08C97.9023 121.722 97.541 121.289 97.2676 120.781C97.0007 120.267 96.8607 119.681 96.8477 119.023H99.6406C99.6797 119.427 99.7839 119.775 99.9531 120.068C100.129 120.355 100.36 120.576 100.646 120.732C100.933 120.889 101.268 120.967 101.652 120.967C102.01 120.967 102.316 120.898 102.57 120.762C102.824 120.625 103.029 120.436 103.186 120.195C103.342 119.948 103.456 119.661 103.527 119.336C103.605 119.004 103.645 118.646 103.645 118.262C103.645 117.877 103.599 117.529 103.508 117.217C103.417 116.904 103.277 116.634 103.088 116.406C102.899 116.178 102.658 116.002 102.365 115.879C102.079 115.755 101.743 115.693 101.359 115.693C100.839 115.693 100.435 115.775 100.148 115.937C99.8685 116.1 99.6341 116.286 99.4453 116.494ZM118.244 117.656V119.863H108L107.863 118.154L113.791 108.75H116.027L113.605 112.803L110.656 117.656H118.244ZM116.633 108.75V122.969H113.82V108.75H116.633ZM119.729 112.236V111.484C119.729 110.944 119.846 110.452 120.08 110.01C120.314 109.567 120.66 109.212 121.115 108.945C121.571 108.678 122.131 108.545 122.795 108.545C123.479 108.545 124.048 108.678 124.504 108.945C124.966 109.212 125.311 109.567 125.539 110.01C125.773 110.452 125.891 110.944 125.891 111.484V112.236C125.891 112.764 125.773 113.249 125.539 113.691C125.311 114.134 124.969 114.489 124.514 114.756C124.058 115.023 123.492 115.156 122.814 115.156C122.144 115.156 121.577 115.023 121.115 114.756C120.66 114.489 120.314 114.134 120.08 113.691C119.846 113.249 119.729 112.764 119.729 112.236ZM121.594 111.484V112.236C121.594 112.464 121.636 112.682 121.721 112.89C121.812 113.092 121.949 113.258 122.131 113.389C122.32 113.512 122.548 113.574 122.814 113.574C123.094 113.574 123.322 113.512 123.498 113.389C123.674 113.258 123.804 113.092 123.889 112.89C123.973 112.682 124.016 112.464 124.016 112.236V111.484C124.016 111.243 123.97 111.022 123.879 110.82C123.794 110.612 123.661 110.446 123.479 110.322C123.303 110.192 123.075 110.127 122.795 110.127C122.535 110.127 122.313 110.192 122.131 110.322C121.949 110.446 121.812 110.612 121.721 110.82C121.636 111.022 121.594 111.243 121.594 111.484ZM126.525 120.234V119.482C126.525 118.948 126.643 118.46 126.877 118.017C127.118 117.575 127.466 117.22 127.922 116.953C128.384 116.686 128.951 116.553 129.621 116.553C130.298 116.553 130.865 116.686 131.32 116.953C131.776 117.22 132.121 117.575 132.355 118.017C132.59 118.46 132.707 118.948 132.707 119.482V120.234C132.707 120.768 132.59 121.256 132.355 121.699C132.128 122.142 131.786 122.497 131.33 122.764C130.874 123.03 130.311 123.164 129.641 123.164C128.964 123.164 128.394 123.03 127.932 122.764C127.469 122.497 127.118 122.142 126.877 121.699C126.643 121.256 126.525 120.768 126.525 120.234ZM128.4 119.482V120.234C128.4 120.469 128.452 120.69 128.557 120.898C128.661 121.107 128.804 121.273 128.986 121.396C129.175 121.52 129.393 121.582 129.641 121.582C129.953 121.582 130.197 121.52 130.373 121.396C130.549 121.273 130.669 121.107 130.734 120.898C130.806 120.69 130.842 120.469 130.842 120.234V119.482C130.842 119.248 130.796 119.03 130.705 118.828C130.614 118.62 130.477 118.454 130.295 118.33C130.119 118.2 129.895 118.135 129.621 118.135C129.348 118.135 129.12 118.2 128.938 118.33C128.762 118.454 128.628 118.62 128.537 118.828C128.446 119.03 128.4 119.248 128.4 119.482ZM130.314 110.781L123.371 121.894L122.004 121.172L128.947 110.058L130.314 110.781Z" fill="black"/>
<path d="M158.199 115.969C158.199 139.993 138.724 159.469 114.699 159.469C90.6748 159.469 71.1992 139.993 71.1992 115.969C71.1992 91.9442 90.6748 72.4686 114.699 72.4686C138.724 72.4686 158.199 91.9442 158.199 115.969ZM84.0119 115.969C84.0119 132.917 97.7511 146.656 114.699 146.656C131.647 146.656 145.387 132.917 145.387 115.969C145.387 99.0204 131.647 85.2812 114.699 85.2812C97.7511 85.2812 84.0119 99.0204 84.0119 115.969Z" fill="#D8E2EC"/>
<path d="M114.699 72.4686C120.891 72.4686 127.012 73.7905 132.652 76.346C138.292 78.9015 143.322 82.6316 147.404 87.287C151.487 91.9424 154.529 97.4158 156.326 103.341C158.124 109.267 158.635 115.507 157.827 121.646C157.019 127.786 154.909 133.681 151.64 138.94C148.37 144.198 144.015 148.697 138.867 152.138C133.718 155.578 127.894 157.879 121.785 158.888C115.676 159.896 109.422 159.589 103.441 157.986L106.777 145.534C110.986 146.662 115.386 146.878 119.685 146.168C123.984 145.458 128.082 143.839 131.704 141.418C135.327 138.998 138.391 135.832 140.692 132.132C142.993 128.432 144.477 124.283 145.046 119.964C145.614 115.644 145.254 111.253 143.989 107.083C142.725 102.914 140.584 99.0629 137.712 95.7872C134.839 92.5115 131.3 89.8868 127.331 88.0887C123.363 86.2905 119.056 85.3604 114.699 85.3604V72.4686Z" fill="#6366F1"/>
<path d="M190.215 109.359V107.734L195.105 100.156H197.637V107.687H199.121V109.359H197.637V111.469H195.699V109.359H190.215ZM192.293 107.687H195.73V102.469H195.605L192.293 107.609V107.687ZM204.855 111.625C202.441 111.625 200.715 110.312 200.668 108.406H202.715C202.77 109.312 203.676 109.914 204.855 109.906C206.098 109.914 206.996 109.226 206.996 108.219C206.996 107.203 206.121 106.476 204.652 106.469H203.637V104.906H204.652C205.855 104.906 206.691 104.234 206.684 103.25C206.691 102.297 205.973 101.656 204.871 101.656C203.809 101.656 202.895 102.25 202.855 103.203H200.902C200.949 101.305 202.676 99.9998 204.887 99.9998C207.184 99.9998 208.668 101.406 208.652 103.14C208.668 104.406 207.824 105.32 206.59 105.578V105.672C208.184 105.883 209.09 106.906 209.074 108.328C209.09 110.242 207.301 111.625 204.855 111.625Z" fill="black"/>
<path d="M195.652 132.625C193.238 132.625 191.512 131.312 191.465 129.406H193.512C193.566 130.312 194.473 130.914 195.652 130.906C196.895 130.914 197.793 130.226 197.793 129.219C197.793 128.203 196.918 127.476 195.449 127.469H194.434V125.906H195.449C196.652 125.906 197.488 125.234 197.48 124.25C197.488 123.297 196.77 122.656 195.668 122.656C194.605 122.656 193.691 123.25 193.652 124.203H191.699C191.746 122.305 193.473 121 195.684 121C197.98 121 199.465 122.406 199.449 124.14C199.465 125.406 198.621 126.32 197.387 126.578V126.672C198.98 126.883 199.887 127.906 199.871 129.328C199.887 131.242 198.098 132.625 195.652 132.625ZM202.074 132.469L206.98 122.937V122.859H201.293V121.156H209.09V122.89L204.184 132.469H202.074Z" fill="black"/>
<circle cx="226.199" cy="104.469" r="5" fill="#6366F1"/>
<circle cx="226.199" cy="127.469" r="5" fill="#D8E2EC"/>
<path d="M245.739 101.519V103.129C245.739 104.709 246.759 106.339 248.019 106.969L247.509 107.619C246.559 107.109 245.749 106.059 245.339 104.829C244.949 106.139 244.119 107.259 243.109 107.799L242.619 107.139C243.909 106.479 244.929 104.759 244.929 103.129V101.519H245.739ZM251.109 104.379V105.059H249.629V109.709H248.809V100.749H249.629V104.379H251.109ZM255.978 109.069C257.378 109.069 258.218 108.719 258.218 108.109C258.218 107.499 257.378 107.149 255.978 107.149C254.568 107.149 253.738 107.499 253.738 108.109C253.738 108.719 254.568 109.069 255.978 109.069ZM255.978 106.509C257.908 106.509 259.048 107.079 259.048 108.109C259.048 109.139 257.908 109.699 255.978 109.699C254.058 109.699 252.908 109.139 252.908 108.109C252.908 107.079 254.058 106.509 255.978 106.509ZM254.738 104.129V105.179H257.228V104.129C256.858 104.189 256.438 104.229 255.978 104.229C255.528 104.229 255.108 104.189 254.738 104.129ZM253.668 102.569C253.668 103.209 254.548 103.599 255.978 103.599C257.408 103.599 258.288 103.209 258.288 102.569C258.288 101.919 257.408 101.539 255.978 101.539C254.548 101.539 253.668 101.919 253.668 102.569ZM258.038 105.179H260.038V105.839H251.918V105.179H253.928V103.919C253.218 103.629 252.828 103.179 252.828 102.569C252.828 101.519 254.038 100.899 255.978 100.899C257.928 100.899 259.128 101.519 259.128 102.569C259.128 103.169 258.728 103.629 258.038 103.909V105.179ZM261.878 104.399L261.588 103.749C263.158 103.569 264.588 102.799 264.658 101.809H261.878V101.149H268.508V101.809H265.718C265.788 102.799 267.218 103.569 268.788 103.749L268.498 104.399C267.028 104.219 265.688 103.559 265.188 102.569C264.698 103.559 263.348 104.219 261.878 104.399ZM267.418 108.119C267.418 107.519 266.578 107.179 265.178 107.179C263.768 107.179 262.938 107.519 262.938 108.119C262.938 108.719 263.768 109.069 265.178 109.069C266.578 109.069 267.418 108.719 267.418 108.119ZM269.238 105.599H265.598V106.559C267.268 106.639 268.248 107.189 268.248 108.119C268.248 109.139 267.098 109.699 265.188 109.699C263.268 109.699 262.108 109.139 262.108 108.119C262.108 107.189 263.098 106.639 264.768 106.559V105.599H261.128V104.939H269.238V105.599Z" fill="#36435C"/>
<path d="M243.249 122.619H247.369V128.449H243.249V122.619ZM246.569 123.279H244.049V127.799H246.569V123.279ZM249.249 121.739H250.069V130.729H249.249V121.739ZM254.938 122.519V124.129C254.938 125.709 255.958 127.339 257.218 127.969L256.708 128.619C255.758 128.109 254.948 127.059 254.538 125.829C254.148 127.139 253.318 128.259 252.308 128.799L251.818 128.139C253.108 127.479 254.128 125.759 254.128 124.129V122.519H254.938ZM260.308 125.379V126.059H258.828V130.709H258.008V121.749H258.828V125.379H260.308ZM265.178 130.069C266.578 130.069 267.418 129.719 267.418 129.109C267.418 128.499 266.578 128.149 265.178 128.149C263.768 128.149 262.938 128.499 262.938 129.109C262.938 129.719 263.768 130.069 265.178 130.069ZM265.178 127.509C267.108 127.509 268.248 128.079 268.248 129.109C268.248 130.139 267.108 130.699 265.178 130.699C263.258 130.699 262.108 130.139 262.108 129.109C262.108 128.079 263.258 127.509 265.178 127.509ZM263.938 125.129V126.179H266.428V125.129C266.058 125.189 265.638 125.229 265.178 125.229C264.728 125.229 264.308 125.189 263.938 125.129ZM262.868 123.569C262.868 124.209 263.748 124.599 265.178 124.599C266.608 124.599 267.488 124.209 267.488 123.569C267.488 122.919 266.608 122.539 265.178 122.539C263.748 122.539 262.868 122.919 262.868 123.569ZM267.238 126.179H269.238V126.839H261.118V126.179H263.128V124.919C262.418 124.629 262.028 124.179 262.028 123.569C262.028 122.519 263.238 121.899 265.178 121.899C267.128 121.899 268.328 122.519 268.328 123.569C268.328 124.169 267.928 124.629 267.238 124.909V126.179Z" fill="#36435C"/>
</g>
<defs>
<filter id="filter0_d_2895_35128" x="0.199219" y="0" width="328.4" height="220" filterUnits="userSpaceOnUse" color-interpolation-filters="sRGB">
<feFlood flood-opacity="0" result="BackgroundImageFix"/>
<feColorMatrix in="SourceAlpha" type="matrix" values="0 0 0 0 0 0 0 0 0 0 0 0 0 0 0 0 0 0 127 0" result="hardAlpha"/>
<feOffset dy="4"/>
<feGaussianBlur stdDeviation="4"/>
<feComposite in2="hardAlpha" operator="out"/>
<feColorMatrix type="matrix" values="0 0 0 0 0.764219 0 0 0 0 0.800859 0 0 0 0 0.8375 0 0 0 0.6 0"/>
<feBlend mode="normal" in2="BackgroundImageFix" result="effect1_dropShadow_2895_35128"/>
<feBlend mode="normal" in="SourceGraphic" in2="effect1_dropShadow_2895_35128" result="shape"/>
</filter>
</defs>
</svg>
