<svg width="316" height="206" viewBox="0 0 316 206" fill="none" xmlns="http://www.w3.org/2000/svg">
<g filter="url(#filter0_d_478_8895)">
<rect x="8" y="4" width="300" height="190" rx="4" fill="white" shape-rendering="crispEdges"/>
<path d="M28.6484 16.3916V20.5283H30.2188V21.6182H28.6484V26.9619H27.3477V16.3916H28.6484ZM20.293 24.0674C22.8711 22.7783 24.2656 20.9854 24.5234 18.5713H20.8672V17.4932H25.8477C25.8418 20.6045 24.5527 23.3408 21.0312 25.0752L20.293 24.0674ZM34.4727 18.0791C34.4727 19.4092 35.334 20.6689 36.9688 21.1846L36.2656 22.2041C35.123 21.8174 34.3027 21.0439 33.8398 20.0596C33.3828 21.1846 32.5273 22.0693 31.3086 22.4971L30.6055 21.4775C32.3105 20.8857 33.166 19.4736 33.1719 17.9619V16.9541H34.4727V18.0791ZM32.0469 24.958C32.0469 23.7041 33.4238 22.96 35.6328 22.9658C37.8242 22.96 39.1777 23.7041 39.1836 24.958C39.1777 26.2412 37.8242 26.9736 35.6328 26.9736C33.4238 26.9736 32.0469 26.2412 32.0469 24.958ZM33.3477 24.958C33.3477 25.6143 34.1797 25.9424 35.6328 25.9424C37.0801 25.9424 37.8945 25.6143 37.8945 24.958C37.8945 24.3369 37.0801 23.9854 35.6328 23.9854C34.1797 23.9854 33.3477 24.3369 33.3477 24.958ZM37.7773 22.7314V16.3916H39.0781V18.9697H40.5547V20.0479H39.0781V22.7314H37.7773ZM46.4844 17.376V20.1299H48.6875V16.3916H49.9766V26.9971H48.6875V21.1846H46.4844V24.3721H41.4922V17.376H46.4844ZM42.793 23.3408H45.207V18.3955H42.793V23.3408ZM60.2891 16.4033V24.1377H58.9766V16.4033H60.2891ZM51.4766 21.6416C53.1934 21.0381 54.0723 19.5439 54.0664 18.0205V16.9893H55.4141V18.0205C55.4082 19.4971 56.2754 20.8916 57.957 21.4541L57.2891 22.4854C56.082 22.0635 55.2207 21.2197 54.752 20.1357C54.2832 21.2959 53.4043 22.2217 52.1562 22.6729L51.4766 21.6416ZM53.2812 26.7744V23.3994H54.5938V25.7197H60.582V26.7744H53.2812Z" fill="black"/>
<rect x="20" y="43" width="276" height="139" rx="4" fill="#F9FBFD"/>
<path fill-rule="evenodd" clip-rule="evenodd" d="M76 89.7861L88.4962 96.9999L88.5357 82.6437L76.0395 75.4299L76 89.7861Z" fill="#ABB4BE"/>
<path fill-rule="evenodd" clip-rule="evenodd" d="M89.7503 82.6438L89.7093 97L102.124 89.7862L102.165 75.43L89.7503 82.6438ZM76.6468 74.2138L89.143 81.4291L101.557 74.2153L89.061 67L76.6468 74.2138Z" fill="#ABB4BE"/>
<path fill-rule="evenodd" clip-rule="evenodd" d="M81.7297 86.5006L88.3944 90.348L88.4154 82.6914L81.7508 78.844L81.7297 86.5006Z" fill="#394454"/>
<path fill-rule="evenodd" clip-rule="evenodd" d="M81.7297 86.5006L88.3944 90.348L88.4154 82.6914L81.7508 78.844L81.7297 86.5006Z" fill="black" fill-opacity="0.2"/>
<path fill-rule="evenodd" clip-rule="evenodd" d="M81.7297 86.5006L88.3944 90.348L88.4154 82.6914L81.7508 78.844L81.7297 86.5006Z" fill="black" fill-opacity="0.2"/>
<path fill-rule="evenodd" clip-rule="evenodd" d="M81.7297 86.5006L88.3944 90.348L88.4154 82.6914L81.7508 78.844L81.7297 86.5006Z" fill="black" fill-opacity="0.2"/>
<path fill-rule="evenodd" clip-rule="evenodd" d="M81.7297 86.5006L88.3944 90.348L88.4154 82.6914L81.7508 78.844L81.7297 86.5006Z" fill="black" fill-opacity="0.2"/>
<path fill-rule="evenodd" clip-rule="evenodd" d="M81.7297 86.5006L88.3944 90.348L88.4154 82.6914L81.7508 78.844L81.7297 86.5006Z" fill="black" fill-opacity="0.2"/>
<path fill-rule="evenodd" clip-rule="evenodd" d="M81.7297 86.5006L88.3944 90.348L88.4154 82.6914L81.7508 78.844L81.7297 86.5006Z" fill="black" fill-opacity="0.2"/>
<path fill-rule="evenodd" clip-rule="evenodd" d="M81.7297 86.5006L88.3944 90.348L88.4154 82.6914L81.7508 78.844L81.7297 86.5006Z" fill="black" fill-opacity="0.2"/>
<path fill-rule="evenodd" clip-rule="evenodd" d="M81.7297 86.5006L88.3944 90.348L88.4154 82.6914L81.7508 78.844L81.7297 86.5006Z" fill="black" fill-opacity="0.2"/>
<path fill-rule="evenodd" clip-rule="evenodd" d="M81.7297 86.5006L88.3944 90.348L88.4154 82.6914L81.7508 78.844L81.7297 86.5006Z" fill="black" fill-opacity="0.2"/>
<path fill-rule="evenodd" clip-rule="evenodd" d="M81.7297 86.5006L88.3944 90.348L88.4154 82.6914L81.7508 78.844L81.7297 86.5006Z" fill="black" fill-opacity="0.2"/>
<path fill-rule="evenodd" clip-rule="evenodd" d="M81.7297 86.5006L88.3944 90.348L88.4154 82.6914L81.7508 78.844L81.7297 86.5006Z" fill="black" fill-opacity="0.2"/>
<path fill-rule="evenodd" clip-rule="evenodd" d="M89.8064 82.5556L89.7845 90.2122L96.4054 86.3649L96.4273 78.7082L89.8064 82.5556ZM82.3355 77.6518L89.0001 81.4999L95.621 77.6526L88.9564 73.8044L82.3355 77.6518Z" fill="#394454"/>
<path fill-rule="evenodd" clip-rule="evenodd" d="M89.8064 82.5556L89.7845 90.2122L96.4054 86.3649L96.4273 78.7082L89.8064 82.5556ZM82.3355 77.6518L89.0001 81.4999L95.621 77.6526L88.9564 73.8044L82.3355 77.6518Z" fill="black" fill-opacity="0.2"/>
<path fill-rule="evenodd" clip-rule="evenodd" d="M89.8064 82.5556L89.7845 90.2122L96.4054 86.3649L96.4273 78.7082L89.8064 82.5556ZM82.3355 77.6518L89.0001 81.4999L95.621 77.6526L88.9564 73.8044L82.3355 77.6518Z" fill="black" fill-opacity="0.2"/>
<path fill-rule="evenodd" clip-rule="evenodd" d="M89.8064 82.5556L89.7845 90.2122L96.4054 86.3649L96.4273 78.7082L89.8064 82.5556ZM82.3355 77.6518L89.0001 81.4999L95.621 77.6526L88.9564 73.8044L82.3355 77.6518Z" fill="black" fill-opacity="0.2"/>
<path fill-rule="evenodd" clip-rule="evenodd" d="M89.8064 82.5556L89.7845 90.2122L96.4054 86.3649L96.4273 78.7082L89.8064 82.5556ZM82.3355 77.6518L89.0001 81.4999L95.621 77.6526L88.9564 73.8044L82.3355 77.6518Z" fill="black" fill-opacity="0.2"/>
<path fill-rule="evenodd" clip-rule="evenodd" d="M89.8064 82.5556L89.7845 90.2122L96.4054 86.3649L96.4273 78.7082L89.8064 82.5556ZM82.3355 77.6518L89.0001 81.4999L95.621 77.6526L88.9564 73.8044L82.3355 77.6518Z" fill="black" fill-opacity="0.2"/>
<path fill-rule="evenodd" clip-rule="evenodd" d="M89.8064 82.5556L89.7845 90.2122L96.4054 86.3649L96.4273 78.7082L89.8064 82.5556ZM82.3355 77.6518L89.0001 81.4999L95.621 77.6526L88.9564 73.8044L82.3355 77.6518Z" fill="black" fill-opacity="0.2"/>
<path fill-rule="evenodd" clip-rule="evenodd" d="M89.8064 82.5556L89.7845 90.2122L96.4054 86.3649L96.4273 78.7082L89.8064 82.5556ZM82.3355 77.6518L89.0001 81.4999L95.621 77.6526L88.9564 73.8044L82.3355 77.6518Z" fill="black" fill-opacity="0.2"/>
<path fill-rule="evenodd" clip-rule="evenodd" d="M89.8064 82.5556L89.7845 90.2122L96.4054 86.3649L96.4273 78.7082L89.8064 82.5556ZM82.3355 77.6518L89.0001 81.4999L95.621 77.6526L88.9564 73.8044L82.3355 77.6518Z" fill="black" fill-opacity="0.2"/>
<path fill-rule="evenodd" clip-rule="evenodd" d="M89.8064 82.5556L89.7845 90.2122L96.4054 86.3649L96.4273 78.7082L89.8064 82.5556ZM82.3355 77.6518L89.0001 81.4999L95.621 77.6526L88.9564 73.8044L82.3355 77.6518Z" fill="black" fill-opacity="0.2"/>
<path fill-rule="evenodd" clip-rule="evenodd" d="M89.8064 82.5556L89.7845 90.2122L96.4054 86.3649L96.4273 78.7082L89.8064 82.5556ZM82.3355 77.6518L89.0001 81.4999L95.621 77.6526L88.9564 73.8044L82.3355 77.6518Z" fill="black" fill-opacity="0.2"/>
<path fill-rule="evenodd" clip-rule="evenodd" d="M89.8064 82.5556L89.7845 90.2122L96.4054 86.3649L96.4273 78.7082L89.8064 82.5556ZM82.3355 77.6518L89.0001 81.4999L95.621 77.6526L88.9564 73.8044L82.3355 77.6518Z" fill="black" fill-opacity="0.2"/>
<path d="M77.8105 153.391C72.166 153.391 68.0059 150.012 67.8496 145.344H72.8105C72.9668 147.629 75.1348 149.27 77.8105 149.289C80.9746 149.27 83.2598 146.984 83.2402 143.859C83.2598 140.617 80.916 138.332 77.6543 138.312C75.4473 138.293 73.8457 139.074 72.9668 140.734H68.2402L69.959 124.719H86.6777V128.977H74.1387L73.2793 136.477H73.5527C74.6465 135.246 76.6973 134.348 79.0215 134.328C84.2754 134.348 88.1816 138.254 88.1621 143.703C88.1816 149.348 83.9238 153.391 77.8105 153.391ZM98.5254 141.156L94.8848 154.703H93.1348L96.791 141.156H98.5254ZM103.854 153L108.76 143.469V143.391H103.072V141.688H110.869V143.422L105.963 153H103.854Z" fill="black"/>
</g>
<path d="M171.617 84.5V83.0312L175.617 79.1719C176.758 78.0312 177.352 77.3594 177.352 76.4062C177.352 75.3516 176.516 74.6875 175.414 74.6875C174.25 74.6875 173.5 75.4141 173.508 76.5625H171.57C171.562 74.4219 173.172 73.0312 175.43 73.0312C177.742 73.0312 179.297 74.4141 179.305 76.3125C179.297 77.5859 178.688 78.6172 176.461 80.7188L174.445 82.7188V82.7969H179.477V84.5H171.617Z" fill="black"/>
<path d="M175.516 105.656C173.258 105.656 171.594 104.305 171.531 102.438H173.516C173.578 103.352 174.445 104.008 175.516 104.016C176.781 104.008 177.695 103.094 177.688 101.844C177.695 100.547 176.758 99.6328 175.453 99.625C174.57 99.6172 173.93 99.9297 173.578 100.594H171.688L172.375 94.1875H179.062V95.8906H174.047L173.703 98.8906H173.812C174.25 98.3984 175.07 98.0391 176 98.0312C178.102 98.0391 179.664 99.6016 179.656 101.781C179.664 104.039 177.961 105.656 175.516 105.656Z" fill="black"/>
<path d="M175.5 126.656C172.773 126.656 171.148 124.547 171.156 120.844C171.148 117.156 172.789 115.031 175.5 115.031C178.211 115.031 179.844 117.156 179.844 120.844C179.844 124.555 178.219 126.656 175.5 126.656ZM173.203 120.844C173.203 123.562 174.078 124.945 175.5 124.953C176.914 124.945 177.797 123.562 177.797 120.844C177.789 118.148 176.914 116.727 175.5 116.719C174.086 116.727 173.211 118.148 173.203 120.844Z" fill="black"/>
<path d="M175.5 147.656C172.773 147.656 171.148 145.547 171.156 141.844C171.148 138.156 172.789 136.031 175.5 136.031C178.211 136.031 179.844 138.156 179.844 141.844C179.844 145.555 178.219 147.656 175.5 147.656ZM173.203 141.844C173.203 144.562 174.078 145.945 175.5 145.953C176.914 145.945 177.797 144.562 177.797 141.844C177.789 139.148 176.914 137.727 175.5 137.719C174.086 137.727 173.211 139.148 173.203 141.844Z" fill="black"/>
<circle cx="197" cy="77" r="5" fill="#C7DEEF"/>
<circle cx="197" cy="99" r="5" fill="#55BC8A"/>
<circle cx="197" cy="121" r="5" fill="#F5A623"/>
<circle cx="197" cy="143" r="5" fill="#CA2621"/>
<path d="M215.86 75.36C216.793 75.36 217.473 75.5433 217.9 75.91C218.327 76.2767 218.54 76.7933 218.54 77.46C218.54 77.7533 218.49 78.0367 218.39 78.31C218.297 78.5767 218.14 78.8167 217.92 79.03C217.7 79.2433 217.407 79.4133 217.04 79.54C216.673 79.66 216.223 79.72 215.69 79.72H214.87V82.5H213.97V75.36H215.86ZM215.78 76.13H214.87V78.95H215.59C216.043 78.95 216.42 78.9033 216.72 78.81C217.02 78.71 217.243 78.5533 217.39 78.34C217.537 78.1267 217.61 77.8467 217.61 77.5C217.61 77.04 217.463 76.6967 217.17 76.47C216.877 76.2433 216.413 76.13 215.78 76.13ZM222.405 77.04C222.505 77.04 222.611 77.0467 222.725 77.06C222.845 77.0667 222.948 77.08 223.035 77.1L222.925 77.91C222.838 77.89 222.741 77.8733 222.635 77.86C222.535 77.8467 222.438 77.84 222.345 77.84C222.138 77.84 221.941 77.8833 221.755 77.97C221.568 78.0567 221.401 78.18 221.255 78.34C221.108 78.4933 220.991 78.68 220.905 78.9C220.825 79.12 220.785 79.3667 220.785 79.64V82.5H219.905V77.14H220.625L220.725 78.12H220.765C220.878 77.92 221.015 77.74 221.175 77.58C221.335 77.4133 221.518 77.2833 221.725 77.19C221.931 77.09 222.158 77.04 222.405 77.04ZM228.5 79.81C228.5 80.2567 228.44 80.6533 228.32 81C228.207 81.34 228.04 81.63 227.82 81.87C227.607 82.11 227.344 82.2933 227.03 82.42C226.724 82.54 226.38 82.6 226 82.6C225.647 82.6 225.32 82.54 225.02 82.42C224.72 82.2933 224.46 82.11 224.24 81.87C224.02 81.63 223.847 81.34 223.72 81C223.6 80.6533 223.54 80.2567 223.54 79.81C223.54 79.2167 223.64 78.7167 223.84 78.31C224.04 77.8967 224.327 77.5833 224.7 77.37C225.074 77.15 225.517 77.04 226.03 77.04C226.517 77.04 226.944 77.15 227.31 77.37C227.684 77.5833 227.974 77.8967 228.18 78.31C228.394 78.7167 228.5 79.2167 228.5 79.81ZM224.45 79.81C224.45 80.23 224.504 80.5967 224.61 80.91C224.724 81.2167 224.897 81.4533 225.13 81.62C225.364 81.7867 225.66 81.87 226.02 81.87C226.38 81.87 226.677 81.7867 226.91 81.62C227.144 81.4533 227.314 81.2167 227.42 80.91C227.534 80.5967 227.59 80.23 227.59 79.81C227.59 79.3833 227.534 79.02 227.42 78.72C227.307 78.42 227.134 78.19 226.9 78.03C226.674 77.8633 226.377 77.78 226.01 77.78C225.464 77.78 225.067 77.96 224.82 78.32C224.574 78.68 224.45 79.1767 224.45 79.81ZM231.795 77.04C232.148 77.04 232.465 77.1067 232.745 77.24C233.032 77.3733 233.275 77.5767 233.475 77.85H233.525L233.645 77.14H234.345V82.59C234.345 83.0967 234.258 83.52 234.085 83.86C233.912 84.2067 233.648 84.4667 233.295 84.64C232.942 84.8133 232.492 84.9 231.945 84.9C231.558 84.9 231.202 84.87 230.875 84.81C230.555 84.7567 230.268 84.6733 230.015 84.56V83.75C230.188 83.8367 230.378 83.91 230.585 83.97C230.792 84.0367 231.015 84.0867 231.255 84.12C231.495 84.1533 231.742 84.17 231.995 84.17C232.455 84.17 232.815 84.0333 233.075 83.76C233.342 83.4933 233.475 83.1267 233.475 82.66V82.45C233.475 82.37 233.478 82.2567 233.485 82.11C233.492 81.9567 233.498 81.85 233.505 81.79H233.465C233.278 82.0633 233.045 82.2667 232.765 82.4C232.492 82.5333 232.172 82.6 231.805 82.6C231.112 82.6 230.568 82.3567 230.175 81.87C229.788 81.3833 229.595 80.7033 229.595 79.83C229.595 79.2567 229.682 78.7633 229.855 78.35C230.035 77.93 230.288 77.6067 230.615 77.38C230.942 77.1533 231.335 77.04 231.795 77.04ZM231.915 77.78C231.615 77.78 231.358 77.86 231.145 78.02C230.938 78.18 230.778 78.4133 230.665 78.72C230.558 79.0267 230.505 79.4 230.505 79.84C230.505 80.5 230.625 81.0067 230.865 81.36C231.112 81.7067 231.468 81.88 231.935 81.88C232.208 81.88 232.442 81.8467 232.635 81.78C232.828 81.7067 232.988 81.5967 233.115 81.45C233.242 81.2967 233.335 81.1033 233.395 80.87C233.455 80.6367 233.485 80.36 233.485 80.04V79.83C233.485 79.3433 233.428 78.95 233.315 78.65C233.208 78.35 233.038 78.13 232.805 77.99C232.572 77.85 232.275 77.78 231.915 77.78ZM238.547 77.04C238.647 77.04 238.754 77.0467 238.867 77.06C238.987 77.0667 239.091 77.08 239.177 77.1L239.067 77.91C238.981 77.89 238.884 77.8733 238.777 77.86C238.677 77.8467 238.581 77.84 238.487 77.84C238.281 77.84 238.084 77.8833 237.897 77.97C237.711 78.0567 237.544 78.18 237.397 78.34C237.251 78.4933 237.134 78.68 237.047 78.9C236.967 79.12 236.927 79.3667 236.927 79.64V82.5H236.047V77.14H236.767L236.867 78.12H236.907C237.021 77.92 237.157 77.74 237.317 77.58C237.477 77.4133 237.661 77.2833 237.867 77.19C238.074 77.09 238.301 77.04 238.547 77.04ZM242.053 77.04C242.513 77.04 242.906 77.14 243.233 77.34C243.566 77.54 243.819 77.8233 243.993 78.19C244.173 78.55 244.263 78.9733 244.263 79.46V79.99H240.593C240.606 80.5967 240.759 81.06 241.053 81.38C241.353 81.6933 241.769 81.85 242.303 81.85C242.643 81.85 242.943 81.82 243.203 81.76C243.469 81.6933 243.743 81.6 244.023 81.48V82.25C243.749 82.37 243.479 82.4567 243.213 82.51C242.946 82.57 242.629 82.6 242.263 82.6C241.756 82.6 241.306 82.4967 240.913 82.29C240.526 82.0833 240.223 81.7767 240.003 81.37C239.789 80.9567 239.683 80.4533 239.683 79.86C239.683 79.2733 239.779 78.77 239.973 78.35C240.173 77.93 240.449 77.6067 240.803 77.38C241.163 77.1533 241.579 77.04 242.053 77.04ZM242.043 77.76C241.623 77.76 241.289 77.8967 241.043 78.17C240.803 78.4367 240.659 78.81 240.613 79.29H243.343C243.343 78.9833 243.296 78.7167 243.203 78.49C243.109 78.2633 242.966 78.0867 242.773 77.96C242.586 77.8267 242.343 77.76 242.043 77.76ZM249.117 81.02C249.117 81.3667 249.031 81.6567 248.857 81.89C248.684 82.1233 248.437 82.3 248.117 82.42C247.797 82.54 247.417 82.6 246.977 82.6C246.604 82.6 246.281 82.57 246.007 82.51C245.741 82.45 245.504 82.3667 245.297 82.26V81.46C245.511 81.5667 245.767 81.6667 246.067 81.76C246.374 81.8467 246.684 81.89 246.997 81.89C247.444 81.89 247.767 81.82 247.967 81.68C248.167 81.5333 248.267 81.34 248.267 81.1C248.267 80.9667 248.231 80.8467 248.157 80.74C248.084 80.6333 247.951 80.5267 247.757 80.42C247.571 80.3133 247.301 80.1933 246.947 80.06C246.601 79.9267 246.304 79.7933 246.057 79.66C245.811 79.5267 245.621 79.3667 245.487 79.18C245.354 78.9933 245.287 78.7533 245.287 78.46C245.287 78.0067 245.471 77.6567 245.837 77.41C246.211 77.1633 246.697 77.04 247.297 77.04C247.624 77.04 247.927 77.0733 248.207 77.14C248.494 77.2 248.761 77.2867 249.007 77.4L248.707 78.1C248.561 78.0333 248.404 77.9767 248.237 77.93C248.077 77.8767 247.914 77.8367 247.747 77.81C247.581 77.7767 247.411 77.76 247.237 77.76C246.877 77.76 246.601 77.82 246.407 77.94C246.221 78.0533 246.127 78.21 246.127 78.41C246.127 78.5567 246.171 78.6833 246.257 78.79C246.344 78.89 246.487 78.99 246.687 79.09C246.894 79.1833 247.167 79.2967 247.507 79.43C247.847 79.5567 248.137 79.6867 248.377 79.82C248.617 79.9533 248.801 80.1167 248.927 80.31C249.054 80.4967 249.117 80.7333 249.117 81.02ZM253.903 81.02C253.903 81.3667 253.816 81.6567 253.643 81.89C253.469 82.1233 253.223 82.3 252.903 82.42C252.583 82.54 252.203 82.6 251.763 82.6C251.389 82.6 251.066 82.57 250.793 82.51C250.526 82.45 250.289 82.3667 250.083 82.26V81.46C250.296 81.5667 250.553 81.6667 250.853 81.76C251.159 81.8467 251.469 81.89 251.783 81.89C252.229 81.89 252.553 81.82 252.753 81.68C252.953 81.5333 253.053 81.34 253.053 81.1C253.053 80.9667 253.016 80.8467 252.943 80.74C252.869 80.6333 252.736 80.5267 252.543 80.42C252.356 80.3133 252.086 80.1933 251.733 80.06C251.386 79.9267 251.089 79.7933 250.843 79.66C250.596 79.5267 250.406 79.3667 250.273 79.18C250.139 78.9933 250.073 78.7533 250.073 78.46C250.073 78.0067 250.256 77.6567 250.623 77.41C250.996 77.1633 251.483 77.04 252.083 77.04C252.409 77.04 252.713 77.0733 252.993 77.14C253.279 77.2 253.546 77.2867 253.793 77.4L253.493 78.1C253.346 78.0333 253.189 77.9767 253.023 77.93C252.863 77.8767 252.699 77.8367 252.533 77.81C252.366 77.7767 252.196 77.76 252.023 77.76C251.663 77.76 251.386 77.82 251.193 77.94C251.006 78.0533 250.913 78.21 250.913 78.41C250.913 78.5567 250.956 78.6833 251.043 78.79C251.129 78.89 251.273 78.99 251.473 79.09C251.679 79.1833 251.953 79.2967 252.293 79.43C252.633 79.5567 252.923 79.6867 253.163 79.82C253.403 79.9533 253.586 80.1167 253.713 80.31C253.839 80.4967 253.903 80.7333 253.903 81.02ZM256.078 77.14V82.5H255.198V77.14H256.078ZM255.648 75.13C255.781 75.13 255.898 75.1767 255.998 75.27C256.104 75.3567 256.158 75.4967 256.158 75.69C256.158 75.8767 256.104 76.0167 255.998 76.11C255.898 76.2033 255.781 76.25 255.648 76.25C255.501 76.25 255.378 76.2033 255.278 76.11C255.178 76.0167 255.128 75.8767 255.128 75.69C255.128 75.4967 255.178 75.3567 255.278 75.27C255.378 75.1767 255.501 75.13 255.648 75.13ZM260.356 77.04C260.996 77.04 261.479 77.1967 261.806 77.51C262.132 77.8167 262.296 78.3167 262.296 79.01V82.5H261.426V79.07C261.426 78.6367 261.329 78.3133 261.136 78.1C260.942 77.8867 260.639 77.78 260.226 77.78C259.632 77.78 259.222 77.9467 258.996 78.28C258.769 78.6133 258.656 79.0933 258.656 79.72V82.5H257.776V77.14H258.486L258.616 77.87H258.666C258.786 77.6833 258.932 77.53 259.106 77.41C259.286 77.2833 259.482 77.19 259.696 77.13C259.909 77.07 260.129 77.04 260.356 77.04ZM265.857 77.04C266.211 77.04 266.527 77.1067 266.807 77.24C267.094 77.3733 267.337 77.5767 267.537 77.85H267.587L267.707 77.14H268.407V82.59C268.407 83.0967 268.321 83.52 268.147 83.86C267.974 84.2067 267.711 84.4667 267.357 84.64C267.004 84.8133 266.554 84.9 266.007 84.9C265.621 84.9 265.264 84.87 264.937 84.81C264.617 84.7567 264.331 84.6733 264.077 84.56V83.75C264.251 83.8367 264.441 83.91 264.647 83.97C264.854 84.0367 265.077 84.0867 265.317 84.12C265.557 84.1533 265.804 84.17 266.057 84.17C266.517 84.17 266.877 84.0333 267.137 83.76C267.404 83.4933 267.537 83.1267 267.537 82.66V82.45C267.537 82.37 267.541 82.2567 267.547 82.11C267.554 81.9567 267.561 81.85 267.567 81.79H267.527C267.341 82.0633 267.107 82.2667 266.827 82.4C266.554 82.5333 266.234 82.6 265.867 82.6C265.174 82.6 264.631 82.3567 264.237 81.87C263.851 81.3833 263.657 80.7033 263.657 79.83C263.657 79.2567 263.744 78.7633 263.917 78.35C264.097 77.93 264.351 77.6067 264.677 77.38C265.004 77.1533 265.397 77.04 265.857 77.04ZM265.977 77.78C265.677 77.78 265.421 77.86 265.207 78.02C265.001 78.18 264.841 78.4133 264.727 78.72C264.621 79.0267 264.567 79.4 264.567 79.84C264.567 80.5 264.687 81.0067 264.927 81.36C265.174 81.7067 265.531 81.88 265.997 81.88C266.271 81.88 266.504 81.8467 266.697 81.78C266.891 81.7067 267.051 81.5967 267.177 81.45C267.304 81.2967 267.397 81.1033 267.457 80.87C267.517 80.6367 267.547 80.36 267.547 80.04V79.83C267.547 79.3433 267.491 78.95 267.377 78.65C267.271 78.35 267.101 78.13 266.867 77.99C266.634 77.85 266.337 77.78 265.977 77.78Z" fill="#36435C"/>
<path d="M215.94 96.36C216.533 96.36 217.02 96.4367 217.4 96.59C217.787 96.7367 218.073 96.96 218.26 97.26C218.447 97.56 218.54 97.9367 218.54 98.39C218.54 98.77 218.47 99.0867 218.33 99.34C218.19 99.5933 218.01 99.7967 217.79 99.95C217.577 100.097 217.35 100.213 217.11 100.3L219.07 103.5H218.02L216.29 100.55H214.87V103.5H213.97V96.36H215.94ZM215.89 97.14H214.87V99.79H215.94C216.327 99.79 216.643 99.74 216.89 99.64C217.137 99.5333 217.317 99.38 217.43 99.18C217.55 98.98 217.61 98.73 217.61 98.43C217.61 98.1167 217.547 97.8667 217.42 97.68C217.3 97.4933 217.113 97.3567 216.86 97.27C216.607 97.1833 216.283 97.14 215.89 97.14ZM224.551 98.14V103.5H223.831L223.701 102.79H223.661C223.547 102.977 223.401 103.13 223.221 103.25C223.041 103.37 222.844 103.457 222.631 103.51C222.417 103.57 222.194 103.6 221.961 103.6C221.534 103.6 221.174 103.533 220.881 103.4C220.594 103.26 220.377 103.047 220.231 102.76C220.084 102.473 220.011 102.103 220.011 101.65V98.14H220.901V101.59C220.901 102.017 220.997 102.337 221.191 102.55C221.384 102.763 221.684 102.87 222.091 102.87C222.491 102.87 222.804 102.797 223.031 102.65C223.264 102.497 223.427 102.277 223.521 101.99C223.621 101.697 223.671 101.343 223.671 100.93V98.14H224.551ZM228.832 98.04C229.472 98.04 229.956 98.1967 230.282 98.51C230.609 98.8167 230.772 99.3167 230.772 100.01V103.5H229.902V100.07C229.902 99.6367 229.806 99.3133 229.612 99.1C229.419 98.8867 229.116 98.78 228.702 98.78C228.109 98.78 227.699 98.9467 227.472 99.28C227.246 99.6133 227.132 100.093 227.132 100.72V103.5H226.252V98.14H226.962L227.092 98.87H227.142C227.262 98.6833 227.409 98.53 227.582 98.41C227.762 98.2833 227.959 98.19 228.172 98.13C228.386 98.07 228.606 98.04 228.832 98.04ZM235.014 98.04C235.654 98.04 236.137 98.1967 236.464 98.51C236.791 98.8167 236.954 99.3167 236.954 100.01V103.5H236.084V100.07C236.084 99.6367 235.987 99.3133 235.794 99.1C235.601 98.8867 235.297 98.78 234.884 98.78C234.291 98.78 233.881 98.9467 233.654 99.28C233.427 99.6133 233.314 100.093 233.314 100.72V103.5H232.434V98.14H233.144L233.274 98.87H233.324C233.444 98.6833 233.591 98.53 233.764 98.41C233.944 98.2833 234.141 98.19 234.354 98.13C234.567 98.07 234.787 98.04 235.014 98.04ZM239.496 98.14V103.5H238.616V98.14H239.496ZM239.066 96.13C239.199 96.13 239.316 96.1767 239.416 96.27C239.522 96.3567 239.576 96.4967 239.576 96.69C239.576 96.8767 239.522 97.0167 239.416 97.11C239.316 97.2033 239.199 97.25 239.066 97.25C238.919 97.25 238.796 97.2033 238.696 97.11C238.596 97.0167 238.546 96.8767 238.546 96.69C238.546 96.4967 238.596 96.3567 238.696 96.27C238.796 96.1767 238.919 96.13 239.066 96.13ZM243.774 98.04C244.414 98.04 244.897 98.1967 245.224 98.51C245.55 98.8167 245.714 99.3167 245.714 100.01V103.5H244.844V100.07C244.844 99.6367 244.747 99.3133 244.554 99.1C244.36 98.8867 244.057 98.78 243.644 98.78C243.05 98.78 242.64 98.9467 242.414 99.28C242.187 99.6133 242.074 100.093 242.074 100.72V103.5H241.194V98.14H241.904L242.034 98.87H242.084C242.204 98.6833 242.35 98.53 242.524 98.41C242.704 98.2833 242.9 98.19 243.114 98.13C243.327 98.07 243.547 98.04 243.774 98.04ZM249.275 98.04C249.629 98.04 249.945 98.1067 250.225 98.24C250.512 98.3733 250.755 98.5767 250.955 98.85H251.005L251.125 98.14H251.825V103.59C251.825 104.097 251.739 104.52 251.565 104.86C251.392 105.207 251.129 105.467 250.775 105.64C250.422 105.813 249.972 105.9 249.425 105.9C249.039 105.9 248.682 105.87 248.355 105.81C248.035 105.757 247.749 105.673 247.495 105.56V104.75C247.669 104.837 247.859 104.91 248.065 104.97C248.272 105.037 248.495 105.087 248.735 105.12C248.975 105.153 249.222 105.17 249.475 105.17C249.935 105.17 250.295 105.033 250.555 104.76C250.822 104.493 250.955 104.127 250.955 103.66V103.45C250.955 103.37 250.959 103.257 250.965 103.11C250.972 102.957 250.979 102.85 250.985 102.79H250.945C250.759 103.063 250.525 103.267 250.245 103.4C249.972 103.533 249.652 103.6 249.285 103.6C248.592 103.6 248.049 103.357 247.655 102.87C247.269 102.383 247.075 101.703 247.075 100.83C247.075 100.257 247.162 99.7633 247.335 99.35C247.515 98.93 247.769 98.6067 248.095 98.38C248.422 98.1533 248.815 98.04 249.275 98.04ZM249.395 98.78C249.095 98.78 248.839 98.86 248.625 99.02C248.419 99.18 248.259 99.4133 248.145 99.72C248.039 100.027 247.985 100.4 247.985 100.84C247.985 101.5 248.105 102.007 248.345 102.36C248.592 102.707 248.949 102.88 249.415 102.88C249.689 102.88 249.922 102.847 250.115 102.78C250.309 102.707 250.469 102.597 250.595 102.45C250.722 102.297 250.815 102.103 250.875 101.87C250.935 101.637 250.965 101.36 250.965 101.04V100.83C250.965 100.343 250.909 99.95 250.795 99.65C250.689 99.35 250.519 99.13 250.285 98.99C250.052 98.85 249.755 98.78 249.395 98.78Z" fill="#36435C"/>
<path d="M218.02 122.59C218.02 123.017 217.917 123.38 217.71 123.68C217.503 123.973 217.207 124.2 216.82 124.36C216.44 124.52 215.99 124.6 215.47 124.6C215.203 124.6 214.947 124.587 214.7 124.56C214.46 124.533 214.24 124.497 214.04 124.45C213.84 124.397 213.663 124.333 213.51 124.26V123.4C213.75 123.507 214.047 123.603 214.4 123.69C214.76 123.777 215.13 123.82 215.51 123.82C215.863 123.82 216.16 123.773 216.4 123.68C216.64 123.587 216.82 123.453 216.94 123.28C217.06 123.107 217.12 122.903 217.12 122.67C217.12 122.437 217.07 122.24 216.97 122.08C216.87 121.92 216.697 121.773 216.45 121.64C216.21 121.5 215.873 121.353 215.44 121.2C215.133 121.087 214.863 120.967 214.63 120.84C214.403 120.707 214.213 120.557 214.06 120.39C213.907 120.223 213.79 120.033 213.71 119.82C213.637 119.607 213.6 119.36 213.6 119.08C213.6 118.7 213.697 118.377 213.89 118.11C214.083 117.837 214.35 117.627 214.69 117.48C215.037 117.333 215.433 117.26 215.88 117.26C216.273 117.26 216.633 117.297 216.96 117.37C217.287 117.443 217.583 117.54 217.85 117.66L217.57 118.43C217.323 118.323 217.053 118.233 216.76 118.16C216.473 118.087 216.173 118.05 215.86 118.05C215.56 118.05 215.31 118.093 215.11 118.18C214.91 118.267 214.76 118.39 214.66 118.55C214.56 118.703 214.51 118.883 214.51 119.09C214.51 119.33 214.56 119.53 214.66 119.69C214.76 119.85 214.923 119.993 215.15 120.12C215.377 120.247 215.683 120.383 216.07 120.53C216.49 120.683 216.843 120.85 217.13 121.03C217.423 121.203 217.643 121.413 217.79 121.66C217.943 121.907 218.02 122.217 218.02 122.59ZM221.128 123.88C221.262 123.88 221.398 123.87 221.538 123.85C221.678 123.823 221.792 123.797 221.878 123.77V124.44C221.785 124.487 221.652 124.523 221.478 124.55C221.305 124.583 221.138 124.6 220.978 124.6C220.698 124.6 220.438 124.553 220.198 124.46C219.965 124.36 219.775 124.19 219.628 123.95C219.482 123.71 219.408 123.373 219.408 122.94V119.82H218.648V119.4L219.418 119.05L219.768 117.91H220.288V119.14H221.838V119.82H220.288V122.92C220.288 123.247 220.365 123.49 220.518 123.65C220.678 123.803 220.882 123.88 221.128 123.88ZM227.612 121.81C227.612 122.257 227.552 122.653 227.432 123C227.318 123.34 227.152 123.63 226.932 123.87C226.718 124.11 226.455 124.293 226.142 124.42C225.835 124.54 225.492 124.6 225.112 124.6C224.758 124.6 224.432 124.54 224.132 124.42C223.832 124.293 223.572 124.11 223.352 123.87C223.132 123.63 222.958 123.34 222.832 123C222.712 122.653 222.652 122.257 222.652 121.81C222.652 121.217 222.752 120.717 222.952 120.31C223.152 119.897 223.438 119.583 223.812 119.37C224.185 119.15 224.628 119.04 225.142 119.04C225.628 119.04 226.055 119.15 226.422 119.37C226.795 119.583 227.085 119.897 227.292 120.31C227.505 120.717 227.612 121.217 227.612 121.81ZM223.562 121.81C223.562 122.23 223.615 122.597 223.722 122.91C223.835 123.217 224.008 123.453 224.242 123.62C224.475 123.787 224.772 123.87 225.132 123.87C225.492 123.87 225.788 123.787 226.022 123.62C226.255 123.453 226.425 123.217 226.532 122.91C226.645 122.597 226.702 122.23 226.702 121.81C226.702 121.383 226.645 121.02 226.532 120.72C226.418 120.42 226.245 120.19 226.012 120.03C225.785 119.863 225.488 119.78 225.122 119.78C224.575 119.78 224.178 119.96 223.932 120.32C223.685 120.68 223.562 121.177 223.562 121.81ZM231.556 119.04C232.216 119.04 232.746 119.27 233.146 119.73C233.553 120.19 233.756 120.883 233.756 121.81C233.756 122.417 233.663 122.93 233.476 123.35C233.296 123.763 233.04 124.077 232.706 124.29C232.38 124.497 231.993 124.6 231.546 124.6C231.273 124.6 231.03 124.563 230.816 124.49C230.603 124.417 230.42 124.323 230.266 124.21C230.12 124.09 229.993 123.96 229.886 123.82H229.826C229.84 123.933 229.853 124.077 229.866 124.25C229.88 124.423 229.886 124.573 229.886 124.7V126.9H229.006V119.14H229.726L229.846 119.87H229.886C229.993 119.717 230.12 119.577 230.266 119.45C230.42 119.323 230.6 119.223 230.806 119.15C231.02 119.077 231.27 119.04 231.556 119.04ZM231.396 119.78C231.036 119.78 230.746 119.85 230.526 119.99C230.306 120.123 230.146 120.327 230.046 120.6C229.946 120.873 229.893 121.22 229.886 121.64V121.81C229.886 122.25 229.933 122.623 230.026 122.93C230.12 123.237 230.276 123.47 230.496 123.63C230.723 123.79 231.03 123.87 231.416 123.87C231.743 123.87 232.01 123.78 232.216 123.6C232.43 123.42 232.586 123.177 232.686 122.87C232.793 122.557 232.846 122.2 232.846 121.8C232.846 121.187 232.726 120.697 232.486 120.33C232.253 119.963 231.89 119.78 231.396 119.78ZM237.709 119.04C238.369 119.04 238.899 119.27 239.299 119.73C239.705 120.19 239.909 120.883 239.909 121.81C239.909 122.417 239.815 122.93 239.629 123.35C239.449 123.763 239.192 124.077 238.859 124.29C238.532 124.497 238.145 124.6 237.699 124.6C237.425 124.6 237.182 124.563 236.969 124.49C236.755 124.417 236.572 124.323 236.419 124.21C236.272 124.09 236.145 123.96 236.039 123.82H235.979C235.992 123.933 236.005 124.077 236.019 124.25C236.032 124.423 236.039 124.573 236.039 124.7V126.9H235.159V119.14H235.879L235.999 119.87H236.039C236.145 119.717 236.272 119.577 236.419 119.45C236.572 119.323 236.752 119.223 236.959 119.15C237.172 119.077 237.422 119.04 237.709 119.04ZM237.549 119.78C237.189 119.78 236.899 119.85 236.679 119.99C236.459 120.123 236.299 120.327 236.199 120.6C236.099 120.873 236.045 121.22 236.039 121.64V121.81C236.039 122.25 236.085 122.623 236.179 122.93C236.272 123.237 236.429 123.47 236.649 123.63C236.875 123.79 237.182 123.87 237.569 123.87C237.895 123.87 238.162 123.78 238.369 123.6C238.582 123.42 238.739 123.177 238.839 122.87C238.945 122.557 238.999 122.2 238.999 121.8C238.999 121.187 238.879 120.697 238.639 120.33C238.405 119.963 238.042 119.78 237.549 119.78ZM243.381 119.04C243.841 119.04 244.234 119.14 244.561 119.34C244.894 119.54 245.148 119.823 245.321 120.19C245.501 120.55 245.591 120.973 245.591 121.46V121.99H241.921C241.934 122.597 242.088 123.06 242.381 123.38C242.681 123.693 243.098 123.85 243.631 123.85C243.971 123.85 244.271 123.82 244.531 123.76C244.798 123.693 245.071 123.6 245.351 123.48V124.25C245.078 124.37 244.808 124.457 244.541 124.51C244.274 124.57 243.958 124.6 243.591 124.6C243.084 124.6 242.634 124.497 242.241 124.29C241.854 124.083 241.551 123.777 241.331 123.37C241.118 122.957 241.011 122.453 241.011 121.86C241.011 121.273 241.108 120.77 241.301 120.35C241.501 119.93 241.778 119.607 242.131 119.38C242.491 119.153 242.908 119.04 243.381 119.04ZM243.371 119.76C242.951 119.76 242.618 119.897 242.371 120.17C242.131 120.437 241.988 120.81 241.941 121.29H244.671C244.671 120.983 244.624 120.717 244.531 120.49C244.438 120.263 244.294 120.087 244.101 119.96C243.914 119.827 243.671 119.76 243.371 119.76ZM248.855 124.6C248.189 124.6 247.655 124.37 247.255 123.91C246.855 123.443 246.655 122.75 246.655 121.83C246.655 120.91 246.855 120.217 247.255 119.75C247.662 119.277 248.199 119.04 248.865 119.04C249.145 119.04 249.389 119.077 249.595 119.15C249.802 119.217 249.982 119.31 250.135 119.43C250.289 119.55 250.419 119.683 250.525 119.83H250.585C250.579 119.743 250.565 119.617 250.545 119.45C250.532 119.277 250.525 119.14 250.525 119.04V116.9H251.405V124.5H250.695L250.565 123.78H250.525C250.419 123.933 250.289 124.073 250.135 124.2C249.982 124.32 249.799 124.417 249.585 124.49C249.379 124.563 249.135 124.6 248.855 124.6ZM248.995 123.87C249.562 123.87 249.959 123.717 250.185 123.41C250.419 123.097 250.535 122.627 250.535 122V121.84C250.535 121.173 250.425 120.663 250.205 120.31C249.985 119.95 249.579 119.77 248.985 119.77C248.512 119.77 248.155 119.96 247.915 120.34C247.682 120.713 247.565 121.217 247.565 121.85C247.565 122.49 247.682 122.987 247.915 123.34C248.155 123.693 248.515 123.87 248.995 123.87Z" fill="#36435C"/>
<path d="M217.96 145.5H213.97V138.36H217.96V139.15H214.87V141.38H217.78V142.16H214.87V144.71H217.96V145.5ZM221.907 140.04C222.007 140.04 222.113 140.047 222.227 140.06C222.347 140.067 222.45 140.08 222.537 140.1L222.427 140.91C222.34 140.89 222.243 140.873 222.137 140.86C222.037 140.847 221.94 140.84 221.847 140.84C221.64 140.84 221.443 140.883 221.257 140.97C221.07 141.057 220.903 141.18 220.757 141.34C220.61 141.493 220.493 141.68 220.407 141.9C220.327 142.12 220.287 142.367 220.287 142.64V145.5H219.407V140.14H220.127L220.227 141.12H220.267C220.38 140.92 220.517 140.74 220.677 140.58C220.837 140.413 221.02 140.283 221.227 140.19C221.433 140.09 221.66 140.04 221.907 140.04ZM226.038 140.04C226.138 140.04 226.244 140.047 226.358 140.06C226.478 140.067 226.581 140.08 226.668 140.1L226.558 140.91C226.471 140.89 226.374 140.873 226.268 140.86C226.168 140.847 226.071 140.84 225.978 140.84C225.771 140.84 225.574 140.883 225.388 140.97C225.201 141.057 225.034 141.18 224.888 141.34C224.741 141.493 224.624 141.68 224.538 141.9C224.458 142.12 224.418 142.367 224.418 142.64V145.5H223.538V140.14H224.258L224.358 141.12H224.398C224.511 140.92 224.648 140.74 224.808 140.58C224.968 140.413 225.151 140.283 225.358 140.19C225.564 140.09 225.791 140.04 226.038 140.04ZM232.133 142.81C232.133 143.257 232.073 143.653 231.953 144C231.84 144.34 231.673 144.63 231.453 144.87C231.24 145.11 230.976 145.293 230.663 145.42C230.356 145.54 230.013 145.6 229.633 145.6C229.28 145.6 228.953 145.54 228.653 145.42C228.353 145.293 228.093 145.11 227.873 144.87C227.653 144.63 227.48 144.34 227.353 144C227.233 143.653 227.173 143.257 227.173 142.81C227.173 142.217 227.273 141.717 227.473 141.31C227.673 140.897 227.96 140.583 228.333 140.37C228.706 140.15 229.15 140.04 229.663 140.04C230.15 140.04 230.576 140.15 230.943 140.37C231.316 140.583 231.606 140.897 231.813 141.31C232.026 141.717 232.133 142.217 232.133 142.81ZM228.083 142.81C228.083 143.23 228.136 143.597 228.243 143.91C228.356 144.217 228.53 144.453 228.763 144.62C228.996 144.787 229.293 144.87 229.653 144.87C230.013 144.87 230.31 144.787 230.543 144.62C230.776 144.453 230.946 144.217 231.053 143.91C231.166 143.597 231.223 143.23 231.223 142.81C231.223 142.383 231.166 142.02 231.053 141.72C230.94 141.42 230.766 141.19 230.533 141.03C230.306 140.863 230.01 140.78 229.643 140.78C229.096 140.78 228.7 140.96 228.453 141.32C228.206 141.68 228.083 142.177 228.083 142.81ZM236.028 140.04C236.128 140.04 236.234 140.047 236.348 140.06C236.468 140.067 236.571 140.08 236.658 140.1L236.548 140.91C236.461 140.89 236.364 140.873 236.258 140.86C236.158 140.847 236.061 140.84 235.968 140.84C235.761 140.84 235.564 140.883 235.378 140.97C235.191 141.057 235.024 141.18 234.878 141.34C234.731 141.493 234.614 141.68 234.528 141.9C234.448 142.12 234.408 142.367 234.408 142.64V145.5H233.528V140.14H234.248L234.348 141.12H234.388C234.501 140.92 234.638 140.74 234.798 140.58C234.958 140.413 235.141 140.283 235.348 140.19C235.554 140.09 235.781 140.04 236.028 140.04Z" fill="#36435C"/>
<defs>
<filter id="filter0_d_478_8895" x="0" y="0" width="316" height="206" filterUnits="userSpaceOnUse" color-interpolation-filters="sRGB">
<feFlood flood-opacity="0" result="BackgroundImageFix"/>
<feColorMatrix in="SourceAlpha" type="matrix" values="0 0 0 0 0 0 0 0 0 0 0 0 0 0 0 0 0 0 127 0" result="hardAlpha"/>
<feOffset dy="4"/>
<feGaussianBlur stdDeviation="4"/>
<feComposite in2="hardAlpha" operator="out"/>
<feColorMatrix type="matrix" values="0 0 0 0 0.764219 0 0 0 0 0.800859 0 0 0 0 0.8375 0 0 0 0.6 0"/>
<feBlend mode="normal" in2="BackgroundImageFix" result="effect1_dropShadow_478_8895"/>
<feBlend mode="normal" in="SourceGraphic" in2="effect1_dropShadow_478_8895" result="shape"/>
</filter>
</defs>
</svg>
