<svg width="311" height="206" viewBox="0 0 311 206" fill="none" xmlns="http://www.w3.org/2000/svg">
<g filter="url(#filter0_d_478_8894)">
<rect x="8" y="4" width="295" height="190" rx="4" fill="white" shape-rendering="crispEdges"/>
<path d="M20.7852 25.9424V17.458H22.3086V21.3604H22.4258L25.7422 17.458H27.6055L24.3242 21.2666L27.6406 25.9424H25.8008L23.2578 22.2979L22.3086 23.4111V25.9424H20.7852ZM28.2148 24.1494C28.2148 22.7197 29.4043 22.3037 30.582 22.2275C31.0273 22.1924 31.9355 22.1514 32.2168 22.1396L32.2109 21.6299C32.2109 20.9971 31.8066 20.6338 31.0625 20.6338C30.3945 20.6338 29.9844 20.9385 29.8672 21.3955H28.4258C28.5312 20.3115 29.5039 19.4971 31.0977 19.4971C32.3047 19.4971 33.6992 19.9951 33.6992 21.6885V25.9424H32.2695V25.0635H32.2227C31.9414 25.6025 31.3496 26.0713 30.3477 26.0713C29.1348 26.0713 28.2148 25.4092 28.2148 24.1494ZM29.6562 24.1377C29.6562 24.6885 30.1074 24.9697 30.7344 24.9697C31.6426 24.9697 32.2227 24.3721 32.2227 23.6572L32.2168 23.1357C31.9473 23.1475 31.1152 23.2002 30.8164 23.2236C30.1074 23.2822 29.6562 23.5811 29.6562 24.1377ZM34.8125 24.1494C34.8125 22.7197 36.002 22.3037 37.1797 22.2275C37.625 22.1924 38.5332 22.1514 38.8145 22.1396L38.8086 21.6299C38.8086 20.9971 38.4043 20.6338 37.6602 20.6338C36.9922 20.6338 36.582 20.9385 36.4648 21.3955H35.0234C35.1289 20.3115 36.1016 19.4971 37.6953 19.4971C38.9023 19.4971 40.2969 19.9951 40.2969 21.6885V25.9424H38.8672V25.0635H38.8203C38.5391 25.6025 37.9473 26.0713 36.9453 26.0713C35.7324 26.0713 34.8125 25.4092 34.8125 24.1494ZM36.2539 24.1377C36.2539 24.6885 36.7051 24.9697 37.332 24.9697C38.2402 24.9697 38.8203 24.3721 38.8203 23.6572L38.8145 23.1357C38.5449 23.1475 37.7129 23.2002 37.4141 23.2236C36.7051 23.2822 36.2539 23.5811 36.2539 24.1377ZM46.3906 19.79C46.3145 19.0576 45.6992 18.6357 44.7852 18.6416C43.8184 18.6357 43.2441 19.1045 43.2383 19.7432C43.2324 20.458 43.9883 20.751 44.6914 20.915L45.4883 21.126C46.7539 21.4189 47.9727 22.0869 47.9727 23.5635C47.9727 25.0518 46.7949 26.0713 44.7617 26.0713C42.7871 26.0713 41.5332 25.1221 41.4688 23.4463H42.9688C43.0391 24.3311 43.7832 24.7646 44.75 24.7705C45.752 24.7646 46.4434 24.2783 46.4492 23.5518C46.4434 22.8838 45.834 22.6025 44.9141 22.3682L43.9531 22.1221C42.5586 21.7588 41.6914 21.0557 41.6914 19.8369C41.6914 18.3369 43.0215 17.3408 44.8086 17.3408C46.6074 17.3408 47.832 18.3545 47.8555 19.79H46.3906Z" fill="black"/>
<rect x="20" y="43" width="270" height="139" rx="4" fill="#F9FBFD"/>
<path d="M100.551 73.0595C100.391 72.5435 100.006 72.1238 99.5253 71.8669L89.7613 67.1605C89.5038 67.0321 89.2167 67 88.9592 67C88.7018 67 88.4146 67 88.1594 67.0642L78.3932 71.8027C77.9124 72.0274 77.5615 72.4472 77.4316 72.9953L75.0322 83.5984C74.9365 84.1465 75.0641 84.6947 75.3853 85.1465L82.1415 93.5569C82.5266 93.9445 83.0712 94.2014 83.6135 94.2335H94.371C94.9475 94.2977 95.4921 94.0409 95.843 93.5569L102.599 85.1465C102.921 84.6947 103.048 84.1465 102.984 83.5984L100.551 73.0595Z" fill="#5F708A"/>
<path d="M100.551 73.0595C100.391 72.5435 100.006 72.1238 99.5253 71.8669L89.7613 67.1605C89.5038 67.0321 89.2167 67 88.9592 67C88.7018 67 88.4146 67 88.1594 67.0642L78.3932 71.8027C77.9124 72.0274 77.5615 72.4472 77.4316 72.9953L75.0322 83.5984C74.9365 84.1465 75.0641 84.6947 75.3853 85.1465L82.1415 93.5569C82.5266 93.9445 83.0712 94.2014 83.6135 94.2335H94.371C94.9475 94.2977 95.4921 94.0409 95.843 93.5569L102.599 85.1465C102.921 84.6947 103.048 84.1465 102.984 83.5984L100.551 73.0595Z" fill="black" fill-opacity="0.2"/>
<path d="M100.551 73.0595C100.391 72.5435 100.006 72.1238 99.5253 71.8669L89.7613 67.1605C89.5038 67.0321 89.2167 67 88.9592 67C88.7018 67 88.4146 67 88.1594 67.0642L78.3932 71.8027C77.9124 72.0274 77.5615 72.4472 77.4316 72.9953L75.0322 83.5984C74.9365 84.1465 75.0641 84.6947 75.3853 85.1465L82.1415 93.5569C82.5266 93.9445 83.0712 94.2014 83.6135 94.2335H94.371C94.9475 94.2977 95.4921 94.0409 95.843 93.5569L102.599 85.1465C102.921 84.6947 103.048 84.1465 102.984 83.5984L100.551 73.0595Z" fill="black" fill-opacity="0.2"/>
<path d="M99.0602 82.9287C99.0283 82.9287 98.9964 82.9287 98.9964 82.8966C98.9964 82.8644 98.9326 82.8644 98.8688 82.8644C98.7412 82.8323 98.6136 82.8323 98.4837 82.8323C98.4199 82.8323 98.3561 82.8323 98.2923 82.8002H98.2604C97.9072 82.7681 97.5244 82.7039 97.1712 82.6076C97.0755 82.5755 96.9798 82.4791 96.9479 82.3828L96.6927 82.3186C96.8203 81.3828 96.7565 80.4172 96.5651 79.4815C96.3418 78.5457 95.9567 77.6443 95.444 76.8393L95.6354 76.6467V76.6145C95.6354 76.5182 95.6673 76.3898 95.7311 76.3256C96.0182 76.0687 96.3076 75.8737 96.6266 75.6811C96.6904 75.649 96.7542 75.6169 96.818 75.5847C96.9456 75.5205 97.0413 75.4563 97.1712 75.3921C97.2031 75.36 97.235 75.36 97.2669 75.3279C97.2988 75.2958 97.2669 75.2958 97.2669 75.2637C97.554 75.0389 97.6201 74.6513 97.3945 74.3623C97.2988 74.2339 97.1074 74.1375 96.9456 74.1375C96.7861 74.1375 96.6243 74.2017 96.4967 74.2981L96.4648 74.3302C96.4329 74.3623 96.401 74.3944 96.3691 74.3944C96.2734 74.4907 96.1777 74.5871 96.1139 74.6834C96.082 74.7476 96.0182 74.7797 95.9863 74.8118C95.763 75.0687 95.4736 75.3279 95.1865 75.5205C95.1227 75.5526 95.0589 75.5847 94.9951 75.5847C94.9632 75.5847 94.8994 75.5847 94.8675 75.5526H94.8356L94.5804 75.7132C94.3252 75.4563 94.0358 75.1971 93.7806 74.9403C92.5957 74.0045 91.1237 73.4265 89.6175 73.2637L89.5856 73.0068V73.0389C89.4899 72.9747 89.458 72.8784 89.4261 72.782C89.4261 72.4265 89.4261 72.0733 89.4899 71.6857V71.6536C89.4899 71.5894 89.5218 71.5252 89.5218 71.461C89.5537 71.3325 89.5537 71.2041 89.5856 71.0734V70.8761C89.6175 70.5527 89.3623 70.2316 89.041 70.1995C88.8496 70.1674 88.6559 70.2637 88.4964 70.4243C88.3688 70.5527 88.305 70.7133 88.305 70.8761V71.0367C88.305 71.1651 88.3369 71.2935 88.3688 71.4243C88.4007 71.4885 88.4007 71.5527 88.4007 71.6169V71.649C88.4645 72.0045 88.4645 72.3577 88.4645 72.7453C88.4326 72.8417 88.4007 72.938 88.305 73.0022V73.0664L88.2731 73.3233C87.9199 73.3554 87.569 73.4196 87.1839 73.4839C85.68 73.8073 84.3014 74.6123 83.2464 75.7407L83.055 75.6123H83.0231C82.9912 75.6123 82.9593 75.6444 82.8955 75.6444C82.8317 75.6444 82.7679 75.6123 82.7041 75.5802C82.4169 75.3554 82.1276 75.0962 81.9043 74.8393C81.8724 74.7751 81.8085 74.743 81.7766 74.7109C81.6809 74.6146 81.6171 74.5183 81.5214 74.4219C81.4895 74.3898 81.4576 74.3898 81.4257 74.3577C81.3938 74.3256 81.3938 74.3256 81.3938 74.3256C81.2662 74.2293 81.1067 74.165 80.9449 74.165C80.7535 74.165 80.5918 74.2293 80.496 74.3898C80.3046 74.6788 80.3684 75.0664 80.6237 75.2912C80.6556 75.2912 80.6556 75.3233 80.6556 75.3233C80.6556 75.3233 80.7194 75.3875 80.7513 75.3875C80.847 75.4517 80.9746 75.5159 81.1044 75.5802C81.1682 75.6123 81.2321 75.6444 81.2959 75.6765C81.6171 75.8691 81.9362 76.0641 82.1914 76.321C82.2552 76.3852 82.319 76.5136 82.2871 76.61V76.5779L82.4785 76.7705C82.4466 76.8347 82.4147 76.8668 82.3828 76.9311C81.3893 78.5113 80.9746 80.3805 81.2617 82.2177L81.0065 82.2819C81.0065 82.314 80.9746 82.314 80.9746 82.314C80.9427 82.4103 80.847 82.4745 80.7513 82.5388C80.3981 82.6351 80.0472 82.6993 79.6621 82.7314C79.5983 82.7314 79.5345 82.7314 79.4707 82.7635C79.3431 82.7635 79.2154 82.7956 79.0856 82.7956C79.0537 82.7956 79.0218 82.8278 78.958 82.8278C78.9261 82.8278 78.9261 82.8278 78.8942 82.8599C78.541 82.9241 78.3177 83.2475 78.3815 83.6007C78.4453 83.8897 78.7347 84.0846 79.0218 84.0525C79.0856 84.0525 79.1175 84.0525 79.1813 84.0204C79.2132 84.0204 79.2132 84.0204 79.2132 83.9883C79.2132 83.9562 79.3089 83.9883 79.3408 83.9883C79.4684 83.9562 79.596 83.892 79.694 83.8598C79.7578 83.8277 79.8216 83.7956 79.8854 83.7956H79.9173C80.2705 83.6672 80.5895 83.5709 80.9746 83.5066H81.0065C81.1022 83.5066 81.1979 83.5388 81.2617 83.603C81.2936 83.603 81.2936 83.6351 81.2936 83.6351L81.5807 83.603C82.0615 85.0846 82.957 86.408 84.2057 87.3736C84.4928 87.5983 84.7503 87.7933 85.0693 87.9538L84.9098 88.1786C84.9098 88.2107 84.9417 88.2107 84.9417 88.2107C85.0055 88.307 85.0055 88.4355 84.9736 88.5341C84.846 88.8575 84.6523 89.1786 84.4609 89.4699V89.502C84.429 89.5662 84.3971 89.5983 84.3333 89.6625C84.2695 89.7267 84.2057 89.8552 84.11 89.9859C84.0781 90.018 84.0781 90.0501 84.0462 90.0822C84.0462 90.0822 84.0462 90.1143 84.0143 90.1143C83.8548 90.4377 83.9824 90.823 84.2695 90.9836C84.3333 91.0157 84.429 91.0478 84.4928 91.0478C84.748 91.0478 84.9736 90.8873 85.1012 90.6602C85.1012 90.6602 85.1012 90.6281 85.1331 90.6281C85.1331 90.596 85.165 90.5639 85.1969 90.5318C85.2288 90.4033 85.2926 90.307 85.3245 90.1763L85.3883 89.9836C85.484 89.6281 85.6435 89.307 85.8053 88.9836C85.8691 88.8873 85.9648 88.8231 86.0605 88.791C86.0924 88.791 86.0924 88.791 86.0924 88.7589L86.22 88.502C87.1155 88.8575 88.0452 89.018 89.0045 89.018C89.581 89.018 90.1575 88.9538 90.734 88.7933C91.0872 88.729 91.4381 88.6006 91.7594 88.5043L91.887 88.729C91.9189 88.729 91.9189 88.729 91.9189 88.7611C92.0146 88.7933 92.1103 88.8575 92.1741 88.9538C92.3336 89.2772 92.4954 89.5983 92.5911 89.9538V89.9859L92.6549 90.1786C92.6868 90.307 92.7187 90.4354 92.7825 90.5341C92.8144 90.5662 92.8144 90.5983 92.8463 90.6304C92.8463 90.6304 92.8463 90.6625 92.8782 90.6625C93.0058 90.8873 93.2314 91.0501 93.4866 91.0501C93.5823 91.0501 93.6461 91.018 93.7418 90.9859C93.8694 90.9217 93.997 90.7932 94.0289 90.6304C94.0608 90.4698 94.0608 90.307 93.997 90.1464C93.997 90.1143 93.9651 90.1143 93.9651 90.1143C93.9651 90.0822 93.9332 90.0501 93.9013 90.018C93.8375 89.8896 93.7737 89.7932 93.678 89.6946C93.6461 89.6304 93.6142 89.5983 93.5504 89.5341V89.4699C93.3271 89.1809 93.1653 88.8575 93.0377 88.5341C93.0058 88.4378 93.0058 88.3093 93.0696 88.2107C93.0696 88.1786 93.1015 88.1786 93.1015 88.1786L93.0058 87.9217C94.6396 86.9217 95.8883 85.3759 96.4648 83.5388L96.72 83.5709C96.7519 83.5709 96.7519 83.5388 96.7519 83.5388C96.8157 83.4745 96.9114 83.4424 97.0071 83.4424H97.039C97.3922 83.5066 97.7431 83.603 98.0644 83.7314H98.0963C98.1601 83.7635 98.2239 83.7956 98.2877 83.7956C98.4153 83.8598 98.511 83.9241 98.6409 83.9562C98.6728 83.9562 98.7047 83.9883 98.7685 83.9883C98.8004 83.9883 98.8004 83.9883 98.8323 84.0204C98.8961 84.0525 98.928 84.0525 98.9918 84.0525C99.2789 84.0525 99.5364 83.8598 99.6321 83.6007C99.6048 83.2521 99.3473 82.9929 99.0602 82.9287ZM89.8066 81.9287L88.943 82.3484L88.0794 81.9287L87.8561 80.9929L88.4645 80.22H89.4261L90.0345 80.9929L89.8066 81.9287ZM95.0247 79.8347C95.1842 80.5113 95.2161 81.1879 95.1523 81.8645L92.1103 80.9952C91.8232 80.931 91.6614 80.6397 91.7252 80.3507C91.7571 80.2544 91.789 80.1902 91.8528 80.126L94.2545 77.9333C94.6077 78.5136 94.8652 79.1581 95.0247 79.8347ZM93.2952 76.7407L90.6702 78.6099C90.4469 78.7384 90.1256 78.7063 89.9661 78.4815C89.9023 78.4173 89.8704 78.3531 89.8704 78.2567L89.679 75.0022C91.0872 75.1627 92.3359 75.7751 93.2952 76.7407ZM87.5006 75.0962L88.1409 74.9678L87.9814 78.1902C87.9814 78.4792 87.7262 78.7063 87.4368 78.7063C87.3411 78.7063 87.2773 78.6741 87.1816 78.642L84.5247 76.7407C85.3541 75.9357 86.3795 75.3554 87.5006 75.0962ZM83.595 77.9333L85.9648 80.0594C86.1881 80.2521 86.22 80.5755 86.0286 80.8003C85.9648 80.8966 85.901 80.9287 85.7734 80.9608L82.6676 81.8622C82.5696 80.5113 82.8886 79.126 83.595 77.9333ZM83.0504 83.3805L86.22 82.8323C86.4752 82.8323 86.7327 82.9929 86.7646 83.2521C86.7965 83.3484 86.7965 83.4768 86.7327 83.5754L85.5159 86.541C84.3948 85.7979 83.497 84.6695 83.0504 83.3805ZM90.3193 87.3758C89.8704 87.4722 89.4238 87.5364 88.943 87.5364C88.2708 87.5364 87.5667 87.408 86.9264 87.213L88.4964 84.3438C88.6559 84.1511 88.9134 84.0869 89.1367 84.2153C89.2324 84.2796 89.2962 84.3438 89.3919 84.4401L90.93 87.2451C90.734 87.2795 90.5426 87.3116 90.3193 87.3758ZM94.2249 84.5731C93.7441 85.3461 93.0719 86.0227 92.304 86.5066L91.0553 83.4768C90.9915 83.2199 91.1191 82.9608 91.3424 82.8644C91.4381 82.8323 91.5338 82.8002 91.6295 82.8002L94.831 83.3484C94.6738 83.7979 94.4801 84.2176 94.2249 84.5731Z" fill="white"/>
<path d="M73.8184 153.391C67.5098 153.391 63.0566 150.031 63.0762 145.422C63.0566 141.828 65.7324 138.898 69.1309 138.352V138.195C66.1621 137.57 64.1504 134.992 64.1309 131.906C64.1504 127.531 68.2324 124.328 73.8184 124.328C79.3652 124.328 83.4668 127.531 83.4668 131.906C83.4668 135.012 81.3965 137.57 78.4668 138.195V138.352C81.8457 138.898 84.541 141.828 84.5605 145.422C84.541 150.031 80.0684 153.391 73.8184 153.391ZM68.3105 144.953C68.291 147.57 70.459 149.367 73.8184 149.367C77.1387 149.367 79.3066 147.57 79.3262 144.953C79.3066 142.297 77.002 140.324 73.8184 140.344C70.6348 140.324 68.291 142.277 68.3105 144.953ZM69.0918 132.375C69.1113 134.855 71.0645 136.555 73.8184 136.555C76.5332 136.555 78.5059 134.855 78.5059 132.375C78.5059 129.973 76.5918 128.312 73.8184 128.312C70.9863 128.312 69.1113 129.973 69.0918 132.375ZM94.8457 141.156L91.2051 154.703H89.4551L93.1113 141.156H94.8457ZM104.346 141.688V153H102.299V143.672H102.236L99.5957 145.359V143.5L102.393 141.688H104.346ZM107.096 153V151.531L111.096 147.672C112.236 146.531 112.83 145.859 112.83 144.906C112.83 143.852 111.994 143.188 110.893 143.188C109.729 143.188 108.979 143.914 108.986 145.062H107.049C107.041 142.922 108.65 141.531 110.908 141.531C113.221 141.531 114.775 142.914 114.783 144.812C114.775 146.086 114.166 147.117 111.939 149.219L109.924 151.219V151.297H114.955V153H107.096Z" fill="black"/>
</g>
<path d="M176.016 105.656C173.758 105.656 172.094 104.305 172.031 102.438H174.016C174.078 103.352 174.945 104.008 176.016 104.016C177.281 104.008 178.195 103.094 178.188 101.844C178.195 100.547 177.258 99.6328 175.953 99.625C175.07 99.6172 174.43 99.9297 174.078 100.594H172.188L172.875 94.1875H179.562V95.8906H174.547L174.203 98.8906H174.312C174.75 98.3984 175.57 98.0391 176.5 98.0312C178.602 98.0391 180.164 99.6016 180.156 101.781C180.164 104.039 178.461 105.656 176.016 105.656Z" fill="black"/>
<path d="M172.117 126.5V125.031L176.117 121.172C177.258 120.031 177.852 119.359 177.852 118.406C177.852 117.352 177.016 116.688 175.914 116.688C174.75 116.688 174 117.414 174.008 118.562H172.07C172.062 116.422 173.672 115.031 175.93 115.031C178.242 115.031 179.797 116.414 179.805 118.312C179.797 119.586 179.188 120.617 176.961 122.719L174.945 124.719V124.797H179.977V126.5H172.117Z" fill="black"/>
<circle cx="197" cy="99" r="5" fill="#55BC8A"/>
<circle cx="197" cy="121" r="5" fill="#ABB4BE"/>
<path d="M215.94 96.36C216.533 96.36 217.02 96.4367 217.4 96.59C217.787 96.7367 218.073 96.96 218.26 97.26C218.447 97.56 218.54 97.9367 218.54 98.39C218.54 98.77 218.47 99.0867 218.33 99.34C218.19 99.5933 218.01 99.7967 217.79 99.95C217.577 100.097 217.35 100.213 217.11 100.3L219.07 103.5H218.02L216.29 100.55H214.87V103.5H213.97V96.36H215.94ZM215.89 97.14H214.87V99.79H215.94C216.327 99.79 216.643 99.74 216.89 99.64C217.137 99.5333 217.317 99.38 217.43 99.18C217.55 98.98 217.61 98.73 217.61 98.43C217.61 98.1167 217.547 97.8667 217.42 97.68C217.3 97.4933 217.113 97.3567 216.86 97.27C216.607 97.1833 216.283 97.14 215.89 97.14ZM222.141 98.04C222.601 98.04 222.994 98.14 223.321 98.34C223.654 98.54 223.907 98.8233 224.081 99.19C224.261 99.55 224.351 99.9733 224.351 100.46V100.99H220.681C220.694 101.597 220.847 102.06 221.141 102.38C221.441 102.693 221.857 102.85 222.391 102.85C222.731 102.85 223.031 102.82 223.291 102.76C223.557 102.693 223.831 102.6 224.111 102.48V103.25C223.837 103.37 223.567 103.457 223.301 103.51C223.034 103.57 222.717 103.6 222.351 103.6C221.844 103.6 221.394 103.497 221.001 103.29C220.614 103.083 220.311 102.777 220.091 102.37C219.877 101.957 219.771 101.453 219.771 100.86C219.771 100.273 219.867 99.77 220.061 99.35C220.261 98.93 220.537 98.6067 220.891 98.38C221.251 98.1533 221.667 98.04 222.141 98.04ZM222.131 98.76C221.711 98.76 221.377 98.8967 221.131 99.17C220.891 99.4367 220.747 99.81 220.701 100.29H223.431C223.431 99.9833 223.384 99.7167 223.291 99.49C223.197 99.2633 223.054 99.0867 222.861 98.96C222.674 98.8267 222.431 98.76 222.131 98.76ZM227.745 98.05C228.399 98.05 228.882 98.1933 229.195 98.48C229.509 98.7667 229.665 99.2233 229.665 99.85V103.5H229.025L228.855 102.74H228.815C228.662 102.933 228.502 103.097 228.335 103.23C228.175 103.357 227.989 103.45 227.775 103.51C227.569 103.57 227.315 103.6 227.015 103.6C226.695 103.6 226.405 103.543 226.145 103.43C225.892 103.317 225.692 103.143 225.545 102.91C225.399 102.67 225.325 102.37 225.325 102.01C225.325 101.477 225.535 101.067 225.955 100.78C226.375 100.487 227.022 100.327 227.895 100.3L228.805 100.27V99.95C228.805 99.5033 228.709 99.1933 228.515 99.02C228.322 98.8467 228.049 98.76 227.695 98.76C227.415 98.76 227.149 98.8033 226.895 98.89C226.642 98.97 226.405 99.0633 226.185 99.17L225.915 98.51C226.149 98.3833 226.425 98.2767 226.745 98.19C227.065 98.0967 227.399 98.05 227.745 98.05ZM228.005 100.91C227.339 100.937 226.875 101.043 226.615 101.23C226.362 101.417 226.235 101.68 226.235 102.02C226.235 102.32 226.325 102.54 226.505 102.68C226.692 102.82 226.929 102.89 227.215 102.89C227.669 102.89 228.045 102.767 228.345 102.52C228.645 102.267 228.795 101.88 228.795 101.36V100.88L228.005 100.91ZM233.221 103.6C232.554 103.6 232.021 103.37 231.621 102.91C231.221 102.443 231.021 101.75 231.021 100.83C231.021 99.91 231.221 99.2167 231.621 98.75C232.027 98.2767 232.564 98.04 233.231 98.04C233.511 98.04 233.754 98.0767 233.961 98.15C234.167 98.2167 234.347 98.31 234.501 98.43C234.654 98.55 234.784 98.6833 234.891 98.83H234.951C234.944 98.7433 234.931 98.6167 234.911 98.45C234.897 98.2767 234.891 98.14 234.891 98.04V95.9H235.771V103.5H235.061L234.931 102.78H234.891C234.784 102.933 234.654 103.073 234.501 103.2C234.347 103.32 234.164 103.417 233.951 103.49C233.744 103.563 233.501 103.6 233.221 103.6ZM233.361 102.87C233.927 102.87 234.324 102.717 234.551 102.41C234.784 102.097 234.901 101.627 234.901 101V100.84C234.901 100.173 234.791 99.6633 234.571 99.31C234.351 98.95 233.944 98.77 233.351 98.77C232.877 98.77 232.521 98.96 232.281 99.34C232.047 99.7133 231.931 100.217 231.931 100.85C231.931 101.49 232.047 101.987 232.281 102.34C232.521 102.693 232.881 102.87 233.361 102.87ZM236.633 98.14H237.573L238.733 101.19C238.8 101.37 238.86 101.543 238.913 101.71C238.973 101.877 239.026 102.04 239.073 102.2C239.12 102.353 239.156 102.503 239.183 102.65H239.223C239.263 102.483 239.326 102.267 239.413 102C239.5 101.727 239.59 101.453 239.683 101.18L240.773 98.14H241.723L239.413 104.24C239.286 104.573 239.136 104.863 238.963 105.11C238.796 105.363 238.59 105.557 238.343 105.69C238.103 105.83 237.81 105.9 237.463 105.9C237.303 105.9 237.163 105.89 237.043 105.87C236.923 105.857 236.82 105.84 236.733 105.82V105.12C236.806 105.133 236.893 105.147 236.993 105.16C237.1 105.173 237.21 105.18 237.323 105.18C237.53 105.18 237.706 105.14 237.853 105.06C238.006 104.987 238.136 104.877 238.243 104.73C238.35 104.59 238.44 104.423 238.513 104.23L238.793 103.52L236.633 98.14Z" fill="#36435C"/>
<path d="M219.63 124.5H218.58L214.76 118.57H214.72C214.727 118.69 214.733 118.823 214.74 118.97C214.753 119.117 214.763 119.277 214.77 119.45C214.777 119.617 214.783 119.79 214.79 119.97C214.797 120.15 214.8 120.33 214.8 120.51V124.5H213.97V117.36H215.01L218.82 123.27H218.86C218.853 123.19 218.847 123.08 218.84 122.94C218.833 122.793 218.827 122.633 218.82 122.46C218.813 122.28 218.807 122.097 218.8 121.91C218.793 121.723 218.79 121.55 218.79 121.39V117.36H219.63V124.5ZM226.108 121.81C226.108 122.257 226.048 122.653 225.928 123C225.814 123.34 225.648 123.63 225.428 123.87C225.214 124.11 224.951 124.293 224.638 124.42C224.331 124.54 223.988 124.6 223.608 124.6C223.254 124.6 222.928 124.54 222.628 124.42C222.328 124.293 222.068 124.11 221.848 123.87C221.628 123.63 221.454 123.34 221.328 123C221.208 122.653 221.148 122.257 221.148 121.81C221.148 121.217 221.248 120.717 221.448 120.31C221.648 119.897 221.934 119.583 222.308 119.37C222.681 119.15 223.124 119.04 223.638 119.04C224.124 119.04 224.551 119.15 224.918 119.37C225.291 119.583 225.581 119.897 225.788 120.31C226.001 120.717 226.108 121.217 226.108 121.81ZM222.058 121.81C222.058 122.23 222.111 122.597 222.218 122.91C222.331 123.217 222.504 123.453 222.738 123.62C222.971 123.787 223.268 123.87 223.628 123.87C223.988 123.87 224.284 123.787 224.518 123.62C224.751 123.453 224.921 123.217 225.028 122.91C225.141 122.597 225.198 122.23 225.198 121.81C225.198 121.383 225.141 121.02 225.028 120.72C224.914 120.42 224.741 120.19 224.508 120.03C224.281 119.863 223.984 119.78 223.618 119.78C223.071 119.78 222.674 119.96 222.428 120.32C222.181 120.68 222.058 121.177 222.058 121.81ZM229.292 123.88C229.426 123.88 229.562 123.87 229.702 123.85C229.842 123.823 229.956 123.797 230.042 123.77V124.44C229.949 124.487 229.816 124.523 229.642 124.55C229.469 124.583 229.302 124.6 229.142 124.6C228.862 124.6 228.602 124.553 228.362 124.46C228.129 124.36 227.939 124.19 227.792 123.95C227.646 123.71 227.572 123.373 227.572 122.94V119.82H226.812V119.4L227.582 119.05L227.932 117.91H228.452V119.14H230.002V119.82H228.452V122.92C228.452 123.247 228.529 123.49 228.682 123.65C228.842 123.803 229.046 123.88 229.292 123.88ZM233.206 117.36C233.799 117.36 234.286 117.437 234.666 117.59C235.052 117.737 235.339 117.96 235.526 118.26C235.712 118.56 235.806 118.937 235.806 119.39C235.806 119.77 235.736 120.087 235.596 120.34C235.456 120.593 235.276 120.797 235.056 120.95C234.842 121.097 234.616 121.213 234.376 121.3L236.336 124.5H235.286L233.556 121.55H232.136V124.5H231.236V117.36H233.206ZM233.156 118.14H232.136V120.79H233.206C233.592 120.79 233.909 120.74 234.156 120.64C234.402 120.533 234.582 120.38 234.696 120.18C234.816 119.98 234.876 119.73 234.876 119.43C234.876 119.117 234.812 118.867 234.686 118.68C234.566 118.493 234.379 118.357 234.126 118.27C233.872 118.183 233.549 118.14 233.156 118.14ZM239.406 119.04C239.866 119.04 240.26 119.14 240.586 119.34C240.92 119.54 241.173 119.823 241.346 120.19C241.526 120.55 241.616 120.973 241.616 121.46V121.99H237.946C237.96 122.597 238.113 123.06 238.406 123.38C238.706 123.693 239.123 123.85 239.656 123.85C239.996 123.85 240.296 123.82 240.556 123.76C240.823 123.693 241.096 123.6 241.376 123.48V124.25C241.103 124.37 240.833 124.457 240.566 124.51C240.3 124.57 239.983 124.6 239.616 124.6C239.11 124.6 238.66 124.497 238.266 124.29C237.88 124.083 237.576 123.777 237.356 123.37C237.143 122.957 237.036 122.453 237.036 121.86C237.036 121.273 237.133 120.77 237.326 120.35C237.526 119.93 237.803 119.607 238.156 119.38C238.516 119.153 238.933 119.04 239.406 119.04ZM239.396 119.76C238.976 119.76 238.643 119.897 238.396 120.17C238.156 120.437 238.013 120.81 237.966 121.29H240.696C240.696 120.983 240.65 120.717 240.556 120.49C240.463 120.263 240.32 120.087 240.126 119.96C239.94 119.827 239.696 119.76 239.396 119.76ZM245.011 119.05C245.664 119.05 246.148 119.193 246.461 119.48C246.774 119.767 246.931 120.223 246.931 120.85V124.5H246.291L246.121 123.74H246.081C245.928 123.933 245.768 124.097 245.601 124.23C245.441 124.357 245.254 124.45 245.041 124.51C244.834 124.57 244.581 124.6 244.281 124.6C243.961 124.6 243.671 124.543 243.411 124.43C243.158 124.317 242.958 124.143 242.811 123.91C242.664 123.67 242.591 123.37 242.591 123.01C242.591 122.477 242.801 122.067 243.221 121.78C243.641 121.487 244.288 121.327 245.161 121.3L246.071 121.27V120.95C246.071 120.503 245.974 120.193 245.781 120.02C245.588 119.847 245.314 119.76 244.961 119.76C244.681 119.76 244.414 119.803 244.161 119.89C243.908 119.97 243.671 120.063 243.451 120.17L243.181 119.51C243.414 119.383 243.691 119.277 244.011 119.19C244.331 119.097 244.664 119.05 245.011 119.05ZM245.271 121.91C244.604 121.937 244.141 122.043 243.881 122.23C243.628 122.417 243.501 122.68 243.501 123.02C243.501 123.32 243.591 123.54 243.771 123.68C243.958 123.82 244.194 123.89 244.481 123.89C244.934 123.89 245.311 123.767 245.611 123.52C245.911 123.267 246.061 122.88 246.061 122.36V121.88L245.271 121.91ZM250.486 124.6C249.82 124.6 249.286 124.37 248.886 123.91C248.486 123.443 248.286 122.75 248.286 121.83C248.286 120.91 248.486 120.217 248.886 119.75C249.293 119.277 249.83 119.04 250.496 119.04C250.776 119.04 251.02 119.077 251.226 119.15C251.433 119.217 251.613 119.31 251.766 119.43C251.92 119.55 252.05 119.683 252.156 119.83H252.216C252.21 119.743 252.196 119.617 252.176 119.45C252.163 119.277 252.156 119.14 252.156 119.04V116.9H253.036V124.5H252.326L252.196 123.78H252.156C252.05 123.933 251.92 124.073 251.766 124.2C251.613 124.32 251.43 124.417 251.216 124.49C251.01 124.563 250.766 124.6 250.486 124.6ZM250.626 123.87C251.193 123.87 251.59 123.717 251.816 123.41C252.05 123.097 252.166 122.627 252.166 122V121.84C252.166 121.173 252.056 120.663 251.836 120.31C251.616 119.95 251.21 119.77 250.616 119.77C250.143 119.77 249.786 119.96 249.546 120.34C249.313 120.713 249.196 121.217 249.196 121.85C249.196 122.49 249.313 122.987 249.546 123.34C249.786 123.693 250.146 123.87 250.626 123.87ZM253.899 119.14H254.839L255.999 122.19C256.065 122.37 256.125 122.543 256.179 122.71C256.239 122.877 256.292 123.04 256.339 123.2C256.385 123.353 256.422 123.503 256.449 123.65H256.489C256.529 123.483 256.592 123.267 256.679 123C256.765 122.727 256.855 122.453 256.949 122.18L258.039 119.14H258.989L256.679 125.24C256.552 125.573 256.402 125.863 256.229 126.11C256.062 126.363 255.855 126.557 255.609 126.69C255.369 126.83 255.075 126.9 254.729 126.9C254.569 126.9 254.429 126.89 254.309 126.87C254.189 126.857 254.085 126.84 253.999 126.82V126.12C254.072 126.133 254.159 126.147 254.259 126.16C254.365 126.173 254.475 126.18 254.589 126.18C254.795 126.18 254.972 126.14 255.119 126.06C255.272 125.987 255.402 125.877 255.509 125.73C255.615 125.59 255.705 125.423 255.779 125.23L256.059 124.52L253.899 119.14Z" fill="#36435C"/>
<defs>
<filter id="filter0_d_478_8894" x="0" y="0" width="311" height="206" filterUnits="userSpaceOnUse" color-interpolation-filters="sRGB">
<feFlood flood-opacity="0" result="BackgroundImageFix"/>
<feColorMatrix in="SourceAlpha" type="matrix" values="0 0 0 0 0 0 0 0 0 0 0 0 0 0 0 0 0 0 127 0" result="hardAlpha"/>
<feOffset dy="4"/>
<feGaussianBlur stdDeviation="4"/>
<feComposite in2="hardAlpha" operator="out"/>
<feColorMatrix type="matrix" values="0 0 0 0 0.764219 0 0 0 0 0.800859 0 0 0 0 0.8375 0 0 0 0.6 0"/>
<feBlend mode="normal" in2="BackgroundImageFix" result="effect1_dropShadow_478_8894"/>
<feBlend mode="normal" in="SourceGraphic" in2="effect1_dropShadow_478_8894" result="shape"/>
</filter>
</defs>
</svg>
