<?xml version="1.0" encoding="UTF-8" standalone="no"?>
<svg
   version="1.1"
   id="Layer_1"
   x="0px"
   y="0px"
   width="100%"
   viewBox="0 0 1747 210"
   enable-background="new 0 0 1747 210"
   xml:space="preserve"
   sodipodi:docname="logo.svg"
   inkscape:version="1.3.2 (091e20e, 2023-11-25)"
   style="background-color: transparent;"
   xmlns:inkscape="http://www.inkscape.org/namespaces/inkscape"
   xmlns:sodipodi="http://sodipodi.sourceforge.net/DTD/sodipodi-0.dtd"
   xmlns="http://www.w3.org/2000/svg"
   xmlns:svg="http://www.w3.org/2000/svg">
<defs
   id="defs12" />
<sodipodi:namedview
   id="namedview12"
   bordercolor="#000000"
   borderopacity="0.25"
   inkscape:showpageshadow="2"
   inkscape:pageopacity="0.0"
   inkscape:pagecheckerboard="0"
   inkscape:deskcolor="#d1d1d1"
   inkscape:zoom="1.3669147"
   inkscape:cx="1064.0751"
   inkscape:cy="103.88358"
   inkscape:window-width="2512"
   inkscape:window-height="1387"
   inkscape:window-x="49"
   inkscape:window-y="25"
   inkscape:window-maximized="1"
   inkscape:current-layer="Layer_1"/>

<path
   fill="#3617CE"
   opacity="1.000000"
   stroke="none"
   d=" M1441.000000,206.963364   C1346.846924,206.963364 1253.193726,206.964767 1159.540649,206.962097   C1142.411011,206.961609 1131.001953,195.622543 1131.000732,178.608658   C1130.998291,144.613571 1130.989746,110.618484 1131.004517,76.623405   C1131.011230,60.937664 1142.765869,49.165524 1158.486084,49.164654   C1345.125732,49.154312 1531.765503,49.155388 1718.405151,49.167870   C1733.960205,49.168911 1745.954224,61.029789 1745.981079,76.545013   C1746.040527,110.873283 1746.038208,145.201782 1745.981934,179.530060   C1745.956421,195.152832 1734.059692,206.955292 1718.460327,206.957352   C1626.140259,206.969528 1533.820068,206.963348 1441.000000,206.963364  z"
   id="path2" />
<path
   fill="#3819CF"
   opacity="1.000000"
   stroke="none"
   d=" M2.995562,169.000000   C2.995562,114.223976 2.995562,59.947952 2.995562,5.382701   C4.413975,5.296442 5.372540,5.187581 6.331145,5.187229   C31.826136,5.177861 57.324474,4.934949 82.814705,5.283367   C95.461075,5.456225 107.884514,7.636810 119.730217,12.525337   C142.558685,21.946270 153.519241,39.619083 154.717117,63.594276   C155.638535,82.036247 151.506180,99.043625 137.087555,112.033028   C125.378403,122.581535 111.095749,127.806938 95.793076,128.737442   C75.378113,129.978821 54.868057,129.658356 34.398701,130.000046   C32.433460,130.032852 30.467205,130.004410 28.007753,130.004410   C28.007753,154.917709 28.007753,179.478790 28.007753,204.295532   C19.575541,204.295532 11.637504,204.295532 2.995562,204.295532   C2.995562,192.659195 2.995562,181.079590 2.995562,169.000000  M129.029129,71.175362   C129.492767,62.201939 128.228775,53.637867 123.062393,45.998829   C114.663467,33.580147 101.890175,28.868505 87.972633,28.175173   C68.545959,27.207396 49.045437,27.719337 29.576391,27.622799   C29.142063,27.620646 28.706266,27.914700 28.315115,28.054831   C28.315115,54.743576 28.315115,81.266624 28.315115,107.045273   C49.266087,107.045273 69.942131,108.147118 90.444160,106.730453   C110.314178,105.357475 126.525299,94.556877 129.029129,71.175362  z"
   id="path3" />
<path
   fill="#391ACF"
   opacity="1.000000"
   stroke="none"
   d=" M247.999847,136.560608   C232.533249,136.560471 217.566650,136.560471 201.958298,136.560471   C204.617401,154.350372 212.108856,168.470688 227.771545,177.207642   C249.971649,189.591293 282.695618,185.290207 301.249451,167.886948   C302.443420,166.766998 303.660919,165.672150 305.208893,164.252502   C310.103271,169.734665 314.818634,175.016327 319.701630,180.485733   C309.640961,191.528961 297.795959,199.282166 283.738922,203.219498   C260.556030,209.712967 237.616562,209.259583 215.862793,198.046646   C191.605927,185.543472 178.971420,164.904922 176.008316,138.066025   C173.333664,113.839905 179.475601,92.213867 195.763535,73.906586   C213.351501,54.138123 235.745667,46.373024 261.726501,49.561199   C302.199005,54.527691 324.595978,87.195625 325.000427,124.394173   C325.041992,128.216507 325.006012,132.039703 325.006012,136.560730   C299.342224,136.560730 273.921051,136.560730 247.999847,136.560608  M263.122314,73.009323   C261.967285,72.866333 260.801056,72.783485 259.658844,72.571533   C232.953751,67.616081 206.259399,87.483978 203.182434,114.798126   C234.776932,114.798126 266.349304,114.798126 297.924255,114.798126   C297.667969,96.417511 283.858643,79.572319 263.122314,73.009323  z"
   id="path4" />
<path
   fill="#381ACF"
   opacity="1.000000"
   stroke="none"
   d=" M609.004578,178.000000   C609.004578,186.987656 609.004578,195.475311 609.004578,204.259064   C601.487793,204.259064 594.250488,204.259064 586.560303,204.259064   C586.560303,196.452835 586.560303,188.856995 586.560303,179.849976   C584.732727,181.782135 583.765808,182.713409 582.901489,183.731735   C570.129517,198.779266 553.998169,206.530579 534.156433,207.077133   C513.754700,207.639099 495.877838,201.689072 480.632690,188.050171   C467.081482,175.926712 459.202057,160.589523 456.319153,142.875015   C452.529266,119.587090 456.986298,97.971069 471.003601,78.587082   C494.348785,46.303898 543.153687,38.995590 573.944702,63.306900   C576.153381,65.050758 578.112427,67.110786 580.531372,69.340836   C583.488770,65.499443 586.610535,61.902237 589.189148,57.950626   C591.258118,54.780025 593.696716,53.577244 597.431519,53.922710   C601.047424,54.257175 604.718506,53.995213 609.004578,53.995213   C609.004578,95.323906 609.004578,136.411957 609.004578,178.000000  M585.559265,122.145531   C584.770325,118.074532 584.348877,113.889771 583.130249,109.951736   C577.020447,90.208168 563.918396,77.276939 543.642578,73.333176   C523.877136,69.488678 506.373566,74.855385 493.106659,90.773338   C481.780640,104.362610 478.911896,120.183746 480.824799,137.491074   C485.012207,175.377747 528.701538,196.714340 560.747742,176.104385   C580.022461,163.708176 586.686218,145.066940 585.559265,122.145531  z"
   id="path5" />
<path
   fill="#391ACF"
   opacity="1.000000"
   stroke="none"
   d=" M786.994507,61.126492   C786.994507,58.819061 786.994507,56.994194 786.994507,54.806511   C794.934692,54.806511 802.641724,54.806511 810.822998,54.806511   C810.822998,56.773808 810.822998,58.563091 810.822998,60.352379   C810.823059,87.848564 810.798340,115.344788 810.834167,142.840927   C810.850464,155.362610 814.267151,166.527649 824.582764,174.533417   C831.968323,180.265213 840.706848,182.176300 849.848267,182.396729   C866.920410,182.808426 881.719666,178.032394 891.829163,163.230316   C896.171570,156.872314 898.012634,149.663742 898.020142,142.006607   C898.046631,114.843742 898.030640,87.680824 898.030701,60.517929   C898.030701,58.698605 898.030701,56.879284 898.030701,54.752342   C906.072815,54.752342 913.814514,54.752342 921.763550,54.752342   C921.763550,104.608429 921.763550,154.222443 921.763550,204.198303   C914.326233,204.198303 906.933960,204.198303 899.034546,204.198303   C899.034546,196.710159 899.034546,189.342728 899.034546,182.431915   C893.482971,187.185974 888.485779,192.623993 882.455688,196.421738   C860.366272,210.333496 823.696167,210.152405 803.274353,189.205734   C792.701843,178.361588 787.188171,165.178040 787.066467,150.096130   C786.828430,120.602165 786.995300,91.104935 786.994507,61.126492  z"
   id="path6" />
<path
   fill="#381ACF"
   opacity="1.000000"
   stroke="none"
   d=" M963.161560,111.767838   C952.218567,91.992996 957.724670,71.748856 977.306946,58.843781   C1003.260437,41.740017 1047.794800,47.543655 1069.168457,71.179092   C1063.560547,76.476608 1057.940552,81.785484 1052.217163,87.192169   C1048.150024,84.243919 1044.505615,81.078102 1040.398438,78.717529   C1024.697388,69.693497 1008.399841,67.533272 992.110718,76.789650   C980.023987,83.657982 980.060425,96.494690 991.695007,104.099190   C993.763794,105.451416 995.945435,106.831345 998.274963,107.550323   C1009.994324,111.167267 1021.742615,114.702827 1033.552734,118.010132   C1046.116577,121.528534 1057.822632,126.552902 1065.784302,137.403748   C1079.275879,155.791382 1074.656982,181.914307 1055.329956,194.906372   C1032.189575,210.461884 1007.181946,210.281143 981.808655,201.575211   C969.515625,197.357254 959.156494,189.930908 951.137390,178.783142   C957.036987,173.191193 962.790466,167.737732 968.890259,161.956009   C975.402527,170.704437 983.406128,177.241241 993.437134,180.993362   C1008.152405,186.497696 1022.726013,186.589401 1036.788330,178.972702   C1047.710449,173.056885 1054.570312,156.395660 1037.619019,146.872513   C1035.611328,145.744598 1033.578003,144.529724 1031.401367,143.858246   C1022.375244,141.073761 1013.295044,138.463699 1004.224426,135.824677   C992.234558,132.336288 980.269714,128.749954 970.731384,120.114746   C968.044006,117.681763 965.779846,114.781334 963.161560,111.767838  z"
   id="path7" />
<path
   fill="#381ACF"
   opacity="1.000000"
   stroke="none"
   d=" M742.118652,84.155777   C740.868958,85.261017 739.903809,86.151474 738.976135,87.007423   C734.309570,83.766953 730.075562,80.234436 725.328125,77.642357   C711.634949,70.165947 697.290161,68.537529 682.678040,74.753532   C679.430725,76.134956 676.350952,78.526505 673.941650,81.141731   C667.666321,87.953423 668.761536,96.698982 676.131592,102.390961   C684.806274,109.090469 695.293213,111.162498 705.469727,114.156502   C715.952637,117.240623 726.887451,119.610268 736.580933,124.403130   C766.697998,139.294281 768.274597,178.387619 740.000305,196.575653   C711.154541,215.131317 664.730530,209.024887 641.693848,183.621735   C640.474792,182.277466 639.439697,180.766418 638.662842,179.772797   C644.014099,173.605591 649.213989,167.612717 654.054443,162.034180   C660.826416,167.637375 666.084534,173.369370 672.517639,177.044922   C689.980408,187.022308 708.182556,188.692032 725.756531,177.349152   C737.805908,169.572052 737.593933,154.717728 725.252502,147.651062   C718.308411,143.674911 710.215698,141.659241 702.566467,138.970764   C690.851196,134.853165 678.693176,131.757401 667.423462,126.674828   C655.443848,121.272049 647.018372,111.994690 644.858093,98.174026   C642.427307,82.622055 649.539612,68.033958 664.397278,58.686028   C691.122620,41.871288 733.927185,47.478848 756.051270,71.129654   C751.509277,75.393234 746.956299,79.667114 742.118652,84.155777  z"
   id="path8" />
<path
   fill="#391ACF"
   opacity="1.000000"
   stroke="none"
   d=" M396.859558,203.160614   C379.268188,197.149170 369.537842,183.833511 369.258331,164.271744   C368.875122,137.450348 369.078308,110.620598 369.030914,83.794426   C369.027740,82.000084 369.030487,80.205727 369.030487,78.127441   C359.654633,78.127441 350.709015,78.127441 341.379913,78.127441   C341.379913,70.269600 341.379913,62.702560 341.379913,54.617561   C350.306641,54.617561 359.385162,54.617561 369.030487,54.617561   C369.030487,43.830002 369.211151,33.539520 368.936676,23.261194   C368.834717,19.443224 369.962280,17.724051 373.735748,16.769711   C379.980133,15.190450 386.059692,12.959378 392.838745,10.802482   C392.838745,25.472645 392.838745,39.672966 392.838745,54.427864   C407.255920,54.427864 421.144592,54.427864 435.289551,54.427864   C435.289551,62.412926 435.289551,69.837509 435.289551,77.775932   C421.321686,77.775932 407.435211,77.775932 393.209045,77.775932   C393.114502,79.872009 392.979736,81.479088 392.978851,83.086227   C392.965454,107.747505 393.233978,132.412491 392.889404,157.068970   C392.590820,178.433746 405.180664,183.522995 422.909332,182.738419   C428.318085,182.499069 433.673645,181.057541 439.648285,180.068085   C440.103149,186.706329 440.717712,193.253052 440.834412,199.808624   C440.853424,200.877945 438.851746,202.560684 437.481140,202.987701   C424.124115,207.149155 410.682465,207.302658 396.859558,203.160614  z"
   id="path9" />



<path
   d="m 1263.7623,180.02086 h -21.4666 l -6.4,-15.59996 h -43.4666 l -6.4,15.59996 h -19.8666 l 39.9999,-93.466429 h 17.6 z m -49.4666,-68.79983 -14.9333,36.39991 h 29.7333 z m 81.9998,68.79983 h -19.7333 V 86.687764 h 19.7333 z m 88.5332,1.33333 q -10.2666,0 -19.2,-4.79999 -8.7999,-4.79999 -14.1333,-13.3333 -5.3333,-8.66664 -5.3333,-19.59995 0,-10.9333 5.2,-19.46662 5.3333,-8.66664 14.1333,-13.46663 8.9333,-4.79999 19.3333,-4.79999 10.4,0 18.9333,4.13333 8.5333,4.13332 13.0666,11.99997 l -13.4666,10.26664 q -7.0667,-9.73331 -17.8666,-9.73331 -5.6,0 -10.4,2.53333 -4.8,2.53332 -7.7333,7.33331 -2.8,4.79999 -2.8,11.19997 0,6.39999 2.8,11.19997 2.9333,4.79999 7.7333,7.33332 4.8,2.53332 10.4,2.53332 5.4666,0 10.1333,-2.26666 4.8,-2.26666 8.1333,-6.39998 l 12.5333,10.13331 q -4.6667,7.33331 -13.0667,11.3333 -8.2666,3.86666 -18.3999,3.86666 z m 61.7331,-1.33333 h -17.8666 V 85.221101 l 17.8666,-5.466653 z m 51.9999,1.33333 q -10.8,0 -19.6,-4.93332 -8.8,-4.93332 -13.8666,-13.46663 -4.9333,-8.66665 -4.9333,-19.33329 0,-10.66664 4.9333,-19.19995 5.0666,-8.66664 13.8666,-13.59996 8.8,-4.93333 19.6,-4.93333 10.7999,0 19.5999,4.93333 8.8,4.93332 13.7333,13.59996 5.0667,8.53331 5.0667,19.19995 0,10.66664 -5.0667,19.33329 -4.9333,8.53331 -13.7333,13.46663 -8.8,4.93332 -19.5999,4.93332 z m 0,-16.39996 q 5.7333,0 10.2666,-2.79999 4.6667,-2.8 7.3333,-7.59998 2.6667,-4.93332 2.6667,-10.93331 0,-5.99998 -2.6667,-10.79997 -2.6666,-4.93332 -7.3333,-7.73331 -4.5333,-2.8 -10.2666,-2.8 -5.7333,0 -10.4,2.8 -4.5333,2.79999 -7.2,7.73331 -2.6666,4.79999 -2.6666,10.79997 0,5.99999 2.6666,10.93331 2.6667,4.79998 7.2,7.59998 4.6667,2.79999 10.4,2.79999 z m 102.2663,-56.93319 h 17.8666 v 71.99982 h -16.5333 v -7.99998 q -4.2666,4.79999 -10.2666,7.46665 -6,2.53332 -13.0666,2.53332 -13.4667,0 -21.3333,-7.73331 -7.8667,-7.86665 -7.8667,-21.19995 v -45.06655 h 17.8667 v 41.1999 q 0,8.26664 4,12.39997 4,3.99999 12.1333,3.99999 7.5999,0 12.3999,-4.53333 4.8,-4.66665 4.8,-11.86663 z m 90.1332,-22.799939 17.8666,-5.466653 V 180.02086 h -16.5332 v -9.59998 q -4.2667,5.19999 -10.2667,8.13332 -6,2.79999 -13.2,2.79999 -10.1333,0 -18.5332,-4.93332 -8.2667,-5.06666 -13.2,-13.59997 -4.8,-8.66664 -4.8,-19.19995 0,-10.5333 4.8,-19.19995 4.9333,-8.66664 13.2,-13.59996 8.3999,-4.93333 18.5332,-4.93333 6.8,0 12.4,2.4 5.6,2.39999 9.7333,6.93331 z m -20.2666,79.733129 q 5.7333,0 10.4,-2.79999 4.6666,-2.8 7.2,-7.59998 2.6666,-4.93332 2.6666,-10.93331 0,-5.99998 -2.6666,-10.79997 -2.5334,-4.93332 -7.2,-7.73331 -4.6667,-2.8 -10.4,-2.8 -8.8,0 -14.5333,5.99999 -5.7333,5.99998 -5.7333,15.33329 0,9.33331 5.7333,15.3333 5.7333,5.99998 14.5333,5.99998 z"
   id="text12"
   style="font-size:133.333px;font-family:'Synergy Display TTF Bold';-inkscape-font-specification:'Synergy Display TTF Bold, ';fill:#ffffff"
   aria-label="AI cloud" /></svg>
